<?xml version="1.0" ?>
<!-- Uploaded to: SVG Repo, www.svgrepo.com, Generator: SVG Repo Mixer Tools -->
<svg width="800px" height="800px" viewBox="0 0 64 64" id="svg5" version="1.1" xml:space="preserve" xmlns="http://www.w3.org/2000/svg" xmlns:svg="http://www.w3.org/2000/svg">
<defs id="defs2"/>
<g id="layer1" transform="translate(0,-672)">
<path d="m 9.999992,681 h 49 v 6 h -49 z" id="path61168" style="fill:#3e4f59;fill-opacity:1;fill-rule:evenodd;stroke-width:2;stroke-linecap:round;stroke-linejoin:round;stroke-miterlimit:4.1"/>
<path d="m 9.999992,687 h 49 v 40 h -49 z" id="path61170" style="fill:#acbec2;fill-opacity:1;fill-rule:evenodd;stroke-width:2.00001;stroke-linecap:round;stroke-linejoin:round;stroke-miterlimit:4.1"/>
<path d="m 9.999992,687 v 40 h 29.76953 a 28.484051,41.392605 35.599482 0 0 18.625,-40 z" id="path61172" style="fill:#e8edee;fill-opacity:1;fill-rule:evenodd;stroke:none;stroke-width:2.00002;stroke-linecap:round;stroke-linejoin:round;stroke-miterlimit:4.1"/>
<path d="m 11.999992,680 c -1.64501,0 -3,1.355 -3,3 v 40 c 0,0.55229 0.44772,1 1,1 0.55229,0 1,-0.44771 1,-1 v -40 c 0,-0.56413 0.43587,-1 1,-1 h 45 c 0.56413,0 1,0.43587 1,1 v 3 h -42 c -0.55228,0 -1,0.44772 -1,1 0,0.55229 0.44772,1 1,1 h 42 v 37 c 0,0.56413 -0.43587,1 -1,1 h -49 c -0.55228,0 -1,0.44772 -1,1 0,0.55229 0.44772,1 1,1 h 49 c 1.64501,0 3,-1.35499 3,-3 0,-14 0,-28 0,-42 0,-1.645 -1.35499,-3 -3,-3 z" id="path61174" style="color:#000000;fill:#000000;fill-rule:evenodd;stroke-linecap:round;stroke-linejoin:round;stroke-miterlimit:4.1"/>
<path d="m 54.999992,683 c -0.55228,0 -1,0.44772 -1,1 0,0.55229 0.44772,1 1,1 0.55229,0 1,-0.44771 1,-1 0,-0.55228 -0.44771,-1 -1,-1 z" id="path61176" style="color:#000000;fill:#ed7161;fill-opacity:1;fill-rule:evenodd;stroke-linecap:round;stroke-linejoin:round;stroke-miterlimit:4.1;-inkscape-stroke:none"/>
<path d="m 50.999992,683 c -0.55228,0 -1,0.44772 -1,1 0,0.55229 0.44772,1 1,1 0.55229,0 1,-0.44771 1,-1 0,-0.55228 -0.44771,-1 -1,-1 z" id="path61178" style="color:#000000;fill:#ecba16;fill-opacity:1;fill-rule:evenodd;stroke-linecap:round;stroke-linejoin:round;stroke-miterlimit:4.1;-inkscape-stroke:none"/>
<path d="m 46.999992,683 c -0.55228,0 -1,0.44772 -1,1 0,0.55229 0.44772,1 1,1 0.55229,0 1,-0.44771 1,-1 0,-0.55228 -0.44771,-1 -1,-1 z" id="path61180" style="color:#000000;fill:#42b05c;fill-opacity:1;fill-rule:evenodd;stroke-linecap:round;stroke-linejoin:round;stroke-miterlimit:4.1;-inkscape-stroke:none"/>
<path d="m 4.999992,726 a 1,1 0 0 0 -1,1 1,1 0 0 0 1,1 1,1 0 0 0 1,-1 1,1 0 0 0 -1,-1 z" id="path61182" style="color:#000000;fill:#000000;fill-rule:evenodd;stroke-linecap:round;stroke-linejoin:round;stroke-miterlimit:4.1;-inkscape-stroke:none"/>
<path d="m 12.999992,686 c -0.55228,0 -1,0.44772 -1,1 0,0.55229 0.44772,1 1,1 0.55229,0 1,-0.44771 1,-1 0,-0.55228 -0.44771,-1 -1,-1 z" id="path61184" style="color:#000000;fill:#000000;fill-rule:evenodd;stroke-linecap:round;stroke-linejoin:round;stroke-miterlimit:4.1;-inkscape-stroke:none"/>
<path d="m 23.990073,692.00003 h 11.07936 L 41.999997,699 l 5e-6,18.00001 c 0,0.55228 -0.443274,1 -0.990081,1 H 23.990073 c -0.546807,0 -0.990081,-0.44772 -0.990081,-1 v -23.99998 c 0,-0.55228 0.443274,-1 0.990081,-1 z" id="rect17719-5" style="fill:#0075d3;fill-opacity:1;fill-rule:evenodd;stroke:none;stroke-width:1.99999;stroke-linecap:round;stroke-linejoin:round;stroke-miterlimit:4.1"/>
<path d="m 23.990236,692 c -0.546808,0 -0.99024,0.44772 -0.99024,1 l 5e-6,24.00001 c 0,0.55227 0.443427,0.99999 0.990235,0.99999 l 17.01953,10e-6 C 41.556573,718.00001 42,717.55228 41.999999,717 L 42,713.96094 A 26.439686,15.901798 74.964352 0 0 35.789063,698.62696 26.439686,15.901798 74.964352 0 0 29.496093,692 Z" id="path56944" style="fill:#0588e2;fill-opacity:1;fill-rule:evenodd;stroke:none;stroke-width:1.99999;stroke-linecap:round;stroke-linejoin:round;stroke-miterlimit:4.1"/>
<path d="m 35,692 v 7 h 7 l -6.925676,-6.9974 z" id="path92391" style="fill:#fe93d3;fill-opacity:1;fill-rule:evenodd;stroke:none;stroke-width:2;stroke-linecap:round;stroke-linejoin:round;stroke-miterlimit:4.1"/>
<path d="M 23.990234,691 C 22.897572,691 22,691.91264 22,693 v 20 a 0.99999499,0.99999499 0 0 0 1,1 0.99999499,0.99999499 0 0 0 1,-1 v -20 h 5 a 0.99999499,0.99999499 0 0 0 1,-1 0.99999499,0.99999499 0 0 0 -1,-1 z m 8.988282,0 a 0.99999499,0.99999499 0 0 0 -1,1 0.99999499,0.99999499 0 0 0 1,1 h 1.03125 l -0.02148,5.99609 c -0.0021,0.55379 0.446209,1.00386 1,1.00391 H 41 v 17 H 24 a 0.99999499,0.99999499 0 0 0 -1,-1 0.99999499,0.99999499 0 0 0 -1,1 c 0,1.08736 0.897572,2 1.990234,2 H 41.009766 C 42.102428,719 43,718.08736 43,717 v -18 a 1.000095,1.000095 0 0 0 -0.289062,-0.70312 l -6.931641,-7 A 1.000095,1.000095 0 0 0 35.070312,691 Z m 3.027343,3.36719 L 39.601562,698 h -3.609374 z" id="path17749-6" style="color:#000000;fill:#000000;fill-rule:evenodd;stroke-linecap:round;stroke-linejoin:round;stroke-miterlimit:4.1;-inkscape-stroke:none"/>
<g id="path18511-2">
<path d="m 27,701 a 1,1 0 0 0 -1,1 1,1 0 0 0 1,1 h 5 a 1,1 0 0 0 1,-1 1,1 0 0 0 -1,-1 z" id="path24802" style="color:#000000;fill:#000000;fill-rule:evenodd;stroke-linecap:round;stroke-linejoin:round;stroke-miterlimit:4.1"/>
</g>
<g id="path18513-9">
<path d="m 27,705 a 1,1 0 0 0 -1,1 1,1 0 0 0 1,1 h 8 a 1,1 0 0 0 1,-1 1,1 0 0 0 -1,-1 z" id="path24808" style="color:#000000;fill:#000000;fill-rule:evenodd;stroke-linecap:round;stroke-linejoin:round;stroke-miterlimit:4.1"/>
</g>
<g id="path18515-1">
<path d="m 27,713 a 1,1 0 0 0 -1,1 1,1 0 0 0 1,1 h 4 a 1,1 0 0 0 1,-1 1,1 0 0 0 -1,-1 z" id="path24820" style="color:#000000;fill:#000000;fill-rule:evenodd;stroke-linecap:round;stroke-linejoin:round;stroke-miterlimit:4.1;-inkscape-stroke:none"/>
</g>
<g id="path13608">
<path d="m 27,709 a 1,1 0 0 0 -1,1 1,1 0 0 0 1,1 h 7 a 1,1 0 0 0 1,-1 1,1 0 0 0 -1,-1 z" id="path24814" style="color:#000000;fill:#000000;fill-rule:evenodd;stroke-linecap:round;stroke-linejoin:round;stroke-miterlimit:4.1"/>
</g>
<g id="path13610">
<path d="m 27,697 a 1,1 0 0 0 -1,1 1,1 0 0 0 1,1 h 4 a 1,1 0 0 0 1,-1 1,1 0 0 0 -1,-1 z" id="path24796" style="color:#000000;fill:#000000;fill-rule:evenodd;stroke-linecap:round;stroke-linejoin:round;stroke-miterlimit:4.1"/>
</g>
<circle cx="-475.51447" cy="534.23401" id="path13587" r="5.0062714" style="fill:#ffa221;fill-opacity:1;fill-rule:evenodd;stroke:none;stroke-width:2.00001;stroke-linecap:round;stroke-linejoin:round;stroke-miterlimit:4.1;stroke-dasharray:none;stroke-opacity:1" transform="rotate(-45)"/>
<path d="m 38.873047,711.17187 a 6.3077736,6.3077736 0 0 0 -1.707034,0.36915 5.0062714,5.0062714 0 0 0 0.814453,5.99804 5.0062714,5.0062714 0 0 0 7.080083,1e-5 5.0062714,5.0062714 0 0 0 0.542995,-0.64256 6.3077736,6.3077736 0 0 0 -1.820312,-3.89257 6.3077736,6.3077736 0 0 0 -4.910157,-1.83204 z" id="circle56915" style="fill:#ffc343;fill-opacity:1;fill-rule:evenodd;stroke:none;stroke-width:2.00001;stroke-linecap:round;stroke-linejoin:round;stroke-miterlimit:4.1;stroke-dasharray:none;stroke-opacity:1"/>
<g id="path13606">
<path d="M 45.464464,717.46448 49,721" id="path24781" style="color:#000000;fill:#d77979;fill-rule:evenodd;stroke-width:2;stroke-linecap:round;stroke-linejoin:round;stroke-miterlimit:4.1;-inkscape-stroke:none"/>
<path d="m 41.521484,708 c -1.539083,0 -3.077484,0.58334 -4.246093,1.75195 -2.337219,2.33722 -2.339165,6.15889 -0.002,8.4961 2.179061,2.17906 5.648396,2.32572 8.001953,0.4414 l 3.017578,3.01758 a 1,1 0 0 0 1.414062,0 1,1 0 0 0 0,-1.41406 l -3.099609,-3.09961 c 0.478624,-0.76167 0.772891,-1.60767 0.876953,-2.4707 a 1.000005,1.000005 0 0 0 -0.873,-1.11328 A 1.000005,1.000005 0 0 0 45.5,714.48242 c -0.103704,0.86011 -0.483587,1.68671 -1.146484,2.34961 -1.572922,1.57292 -4.093094,1.57488 -5.666016,0.002 -1.572915,-1.57291 -1.570969,-4.09309 0.002,-5.66601 1.572915,-1.57292 4.091148,-1.57292 5.664063,0 a 1.000005,1.000005 0 0 0 1.416015,0 1.000005,1.000005 0 0 0 0,-1.41602 C 44.600922,708.58334 43.060568,708 41.521484,708 Z" id="path24783" style="color:#000000;fill:#000000;fill-rule:evenodd;stroke-linecap:round;stroke-linejoin:round;stroke-miterlimit:4.1"/>
</g>
</g>
</svg>
