<?xml version="1.0" encoding="UTF-8"?>
<svg id="Layer_1" data-name="Layer 1" xmlns="http://www.w3.org/2000/svg" viewBox="0 0 3000 3000">
  <defs>
    <style>
      .cls-1 {
        fill: #fff;
      }

      .cls-2 {
        fill: #561a15;
      }

      .cls-3 {
        fill: #bde2d0;
      }

      .cls-4 {
        fill: #5966af;
      }

      .cls-5 {
        fill: #d3c8b7;
      }

      .cls-6 {
        fill: #ba8574;
      }

      .cls-7 {
        fill: #978782;
      }

      .cls-8 {
        fill: #463d43;
      }

      .cls-9 {
        fill: #29b2be;
      }

      .cls-10 {
        fill: #bfc7e1;
      }

      .cls-11 {
        fill: #d4cab8;
      }

      .cls-12 {
        fill: #d2c8b6;
      }

      .cls-13 {
        fill: #84b760;
      }
    </style>
  </defs>
  <path class="cls-4" d="M914.16,1587.86c-44.88,31.32-93.99,44.16-144.74,50.31-60.84,7.37-114.86-8.23-157.34-54.89-23.01-25.28-32.21-54.31-20.38-87.53,8.44-23.71,25.24-39.03,49.85-45.98,28.29-7.99,57.55-12.06,85.32-22.29,33.29-12.26,64.61-28.17,95.28-45.89,46.42-26.83,70.51-66.09,75.08-119.65,6.59-77.28,29.49-150.02,67.55-217.77,4.95-8.82,10.7-17.18,16.05-25.7-.45-3.88-3.92-3.46-6.03-4.16-66.44-21.9-117.98-64.21-161.4-117.63-22.44-27.61-41.05-57.53-54.02-90.81-3.91-10.01-7.22-20.16-8.97-30.8-7.19-43.63,24.21-96.27,87.45-79.88,25.08,6.5,45.28,21.57,64.59,37.84,18.04,15.19,35.26,31.36,53.29,46.57,13.02,10.99,26.37,21.68,43.01,30.78,1.4-10.37,2.5-19.59,3.9-28.77,4.72-31.02,16.84-58.72,38.78-81.35,6.89-7.11,7.98-12.96,5.2-22.5-18.49-63.38-21.2-127.66-8.32-192.45,3.15-15.84,8.56-31.03,17.13-44.82,21.15-34.07,51.59-52.21,92.05-51.68,8.39,.11,12.46-1.23,13.81-10.45,1.69-11.62,6.19-22.63,11.13-33.41,20.57-44.87,64.83-66.82,115-61.23,41.35,4.6,74.76,24.5,103.95,52.87,13.48,13.1,24.87,27.98,36.55,43.34,4.68-.84,7.26-4.43,10.46-6.84,28.27-21.3,59.67-35.5,94.54-41.87,20.67-3.78,40.56,.62,60.09,6.67,23.19,7.18,44.45,18.38,64.05,32.73,4.27,3.13,8.54,6.27,13.41,9.86,4.72-6.11,8.91-11.6,13.18-17.03,24.23-30.83,52.65-56.51,89.88-70.64,27.11-10.29,55.06-13.6,83.58-6.13,43.52,11.4,66.75,42.05,78.61,83.35,1.74,6.06,.61,14.31,5.88,17.57,4.28,2.65,11.36,.56,17.16,1,39.52,2.99,68.57,22.22,87.41,56.94,15.77,29.06,19.61,61,21.55,93.21,2.93,48.58-2.28,96.36-16.42,143.02-1.63,5.38-2.96,9.46,2.04,14.33,30.01,29.21,43.1,65.75,45.11,106.88,.08,1.58,.3,3.17,.62,4.72,.08,.39,.81,.65,1.58,1.22,5.4-.28,9.23-4.23,13.46-7.17,25.15-17.5,48.19-37.58,70.51-58.47,15.34-14.36,32.08-26.77,50.13-37.45,15.56-9.2,32.57-14.19,50.53-13.69,33.15,.93,58.03,24.27,63.04,57.78,2.53,16.9-.63,33-6.27,48.89-10.31,29.03-24.95,55.72-43.25,80.39-47,63.38-104.08,113.62-182.39,137.35,18.44,25.73,31.87,53.06,43.87,81.11,20.78,48.58,33.94,99.18,39.97,151.68,1.65,14.36,3.94,28.67,6.49,42.91,5.59,31.18,22.58,55.34,47.79,73.66,52.69,38.3,110.99,64.1,174.9,77.11,10.99,2.24,21.99,4.74,32.69,8.05,42.18,13.02,62.77,65.47,41.85,107.16-12.12,24.16-31.43,41.83-54.08,55.96-36.08,22.49-75.86,28.7-117.36,24.54-33.13-3.32-65.24-11.8-96.51-23.34-17.64-6.51-34.03-15.39-50.78-27.56-5.74,27.43-12.55,52.93-19.99,78.28-4,13.63,2.07,27.59,7.38,40.5,8.65,21.03,22.07,39.17,36.6,56.44,13.11,15.59,26.76,30.72,40.06,46.16,8.06,9.36,14.69,19.76,21.64,29.95,14.63,21.48,15.04,45.28,11.75,69.59-.77,5.7-2.87,11.7-5.96,16.53-20.28,31.65-45.11,57.28-85.18,61.89-16.39,1.88-32.71,4.7-50.48,.19,3.17,17.66,6.33,33.22,8.71,48.91,15.14,99.56-56.96,188.91-157.72,195.6-12.89,.86-13.81-1.94-14.62,14.06-2.78,55.1-31.28,95.53-74.59,126.99-10.87,7.9-22.84,13.95-35.09,19.41-11.78,5.25-24.5,7.4-37.85,10.94,.32,24.07-.16,48.13-3.05,72.08-3.9,32.38-5.67,65.07-18.93,95.7-39.6,91.43-104.5,154.51-202.4,179.88-60.31,15.63-118.36,6.01-172.78-22.53-76.42-40.08-127.24-102.54-150.62-185.49-11.51-40.83-12.62-83.59-13.09-125.99-.19-17.25,2.86-12.72-13.83-17.11-54.58-14.35-94.19-47.15-119.76-96.96-9.39-18.3-13.78-38.17-13.83-58.94-.03-10.97-.38-11.4-11.67-11.79-42.19-1.46-77.69-19.09-108.8-46.02-40.15-34.77-54.98-80.49-53.76-132.31,.44-18.83,4.28-37.23,8.74-55.47,.74-3.03,2.13-5.94,.68-10.29-21.53,4.05-42.54,.73-63.44-3.77-15.59-3.36-29.17-10.64-40.45-21.84-7.98-7.93-16.37-15.72-22.88-24.8-20.7-28.9-21.05-59.91-6.01-91.13,8.4-17.45,20.93-32.34,33.63-46.94,13.72-15.77,27.83-31.25,40.79-47.63,17.09-21.58,31.54-44.72,35.33-72.89,.64-4.78,1.51-9.4-.18-14.26-8.41-24.27-14.78-49.09-19.48-76.88Zm941.5,692.11c2.66-1.57,6.38-1.7,7.47-5.43,4.31-3.71,8.53-7.47,8.58-13.81l.97-.67-.83,.81c-5.11,2.33-8.77,6.13-11.2,11.15-3.29,1.7-3.22,5.41-4.8,8.12-.41,.18-.87,.3-1.21,.57-.19,.15-.18,.56-.26,.85,.43-.53,.86-1.06,1.3-1.59Zm-627.51-15.83c-.36-.58-.72-1.16-1.08-1.73,.03,.31-.06,.74,.1,.89,.32,.3,.79,.44,1.2,.64,2.26,8.03,7.89,12.76,14.79,16.24-3.43-6.92-5.49-15.23-15.01-16.04Z"/>
  <path class="cls-6" d="M1228.14,2264.15c9.53,.81,11.59,9.12,15.01,16.03-6.9-3.48-12.54-8.21-14.79-16.24l-.22,.2Z"/>
  <path class="cls-6" d="M1860.63,2272.02c2.45-5.01,6.11-8.81,11.22-11.15l-.14-.15c-.05,6.35-4.27,10.11-8.58,13.81-.83-.84-1.66-1.68-2.5-2.52Z"/>
  <path class="cls-6" d="M1863.12,2274.54c-1.09,3.73-4.8,3.86-7.47,5.43l.18,.17c1.59-2.71,1.51-6.41,4.8-8.12,.82,.84,1.66,1.68,2.49,2.52Z"/>
  <polygon class="cls-6" points="1871.84 2260.87 1872.67 2260.06 1871.7 2260.73 1871.84 2260.87"/>
  <path class="cls-6" d="M1228.37,2263.94c-.41-.2-.87-.34-1.2-.64-.17-.15-.08-.59-.1-.89,.36,.58,.72,1.16,1.08,1.74,0,0,.22-.2,.22-.2Z"/>
  <path class="cls-6" d="M1855.66,2279.97c-.43,.53-.86,1.06-1.3,1.59,.08-.29,.07-.69,.26-.85,.34-.27,.8-.39,1.21-.57,0,0-.18-.17-.18-.17Z"/>
  <path class="cls-10" d="M1171.07,1253.76c-39.75,53.61-82.89,101.52-131.38,143.6-51.89,45.04-102.41,92.64-165.46,123.05-44.52,21.47-90.26,39.42-139.16,47.68-13.06,2.2-26.8,1.54-40.12,.64-15.74-1.06-31.44-18.84-32.57-35.04-1.09-15.63,10.92-33.31,26.51-38.25,5.56-1.76,11.47-3.06,17.27-3.27,36.52-1.3,70.16-13.26,103.21-27.39,51.59-22.05,97.44-53.57,141.58-87.58,13.06-10.06,23.78-23.16,35.57-34.86,14.85-14.73,29.26-29.93,44.65-44.06,21.42-19.68,38.74-42.88,57.29-64.99,20.26-24.16,39.14-49.47,59.19-73.81,5.31-6.44,6.96-12.41,5.69-20.5-3.66-23.27-10.53-45.78-15.68-68.69-1.65-7.36-3.64-13.67-14.1-13.72-8.1-.04-12.71-7.23-14.06-15.3-2.37-14.21-4.43-28.46-6.73-42.68-.68-4.21-2.15-8.31-2.56-12.53-.62-6.46-3.88-8.47-10.2-9.66-26.76-5.04-53.48-10.31-79.49-18.68-49.58-15.95-94.16-40.48-132.99-75.46-21.91-19.74-41.49-41.57-60.6-63.93-5.68-6.65-9.93-13.98-13.45-21.79-6.64-14.73-2.28-30.94,10.4-40.12,14.46-10.47,29.92-10.2,42.47,1.62,13.21,12.44,25.16,26.14,38.22,38.8,47.5,46.05,101.96,79.43,166.73,94.93,3.63,.87,7.37,1.25,11.04,1.91,14.51,2.63,16.67,.71,13.46-14.12-6.52-30.11-6.54-60.6-5.41-91.08,1.01-27.16,21.94-47.91,51.77-52.68,12.69-2.03,13.26-2.21,9.57-14.21-16.52-53.73-26.24-109.01-37.39-163.94-3.65-17.95-4.08-36.68-.9-54.42,5.28-29.39,31.15-48.72,61.39-41,24.05,6.14,43.43,20.23,62.08,35.69,3.58,2.97,5.92,7.75,12.69,8.3,3.8-10.01-1.36-19.68-2.89-28.87-3.42-20.57-5.31-41.3-7.67-61.93-1.57-13.74,1.73-27.77,6.66-40.83,8.36-22.14,30.5-33.09,53.41-26.72,26.3,7.31,44.3,25.31,58.36,47.55,17.23,27.24,30.67,56.4,42.14,86.5,9.7,25.45,18.66,51.15,26.45,79.8,4.01-7.54,6.97-13.1,9.93-18.66,21.1-39.66,49.49-72.37,89.88-93.36,20.17-10.48,41.93-10.99,62.01-2.13,40.73,17.97,68.21,50.72,90.77,87.99,4.35,7.18,6.79,15.51,12.1,21.78,4.51-.76,3.99-3.89,4.73-6.28,14.49-47.16,31.21-93.43,54.49-137.09,12.51-23.48,28.4-44.08,51.01-58.8,11.72-7.63,24.77-10.42,38.4-8.53,12.75,1.77,23.11,8.24,29.63,19.8,6.16,10.92,9.12,22.72,9.56,35.25,1.19,33.39-4.34,66-11.22,98.46-.55,2.58-1.99,5.01-.25,8.4,13.31-4.97,21.26-17.13,32.66-24.63,12.64-8.31,25.57-15.71,39.97-20.14,33.44-10.28,65.28,12.33,67.47,47.57,1.23,19.89-.36,39.62-4.72,59-11.96,53.13-20.34,107.13-38.44,158.78-.48,1.37-.06,3.06-.06,5.25,11.02,1.88,22.29,2.68,32.57,7.44,22.51,10.43,31.75,29.35,32.97,52.83,1.26,24.1-1.71,47.99-5.13,71.81-.46,3.17-1.1,6.43-.84,9.57,.53,6.34-4.69,14.38-.68,18.26,5.93,5.74,14.12-.63,21.11-2.02,56.55-11.29,104.66-39.31,148.46-75.8,19.8-16.5,38.27-34.17,54.72-54.08,11.16-13.51,29.39-18.25,47.63-6.51,13.87,8.93,17.57,29.93,8.34,45.68-6.52,11.12-14.3,21.39-22.84,30.96-32.57,36.5-67.56,69.78-110.8,94.21-46.46,26.25-96.59,40.04-148.31,49.43-9.35,1.7-12.8,5.58-13.93,14.09-2.04,15.34-4.4,30.64-6.9,45.91-2.6,15.87-5.34,18.81-20.8,20.08-5.4,.44-6.26,3.88-6.9,7.17-4.2,21.52-10.62,42.47-15.82,63.72-3.44,14.04-.65,26.59,8.89,38.82,49.45,63.41,103.04,122.86,159.86,179.88,46.48,46.65,99.92,81.75,157.57,111.53,31.48,16.26,65.13,27.11,100.01,33.79,10.49,2.01,21.23,.54,31.85,3.32,14.97,3.91,25.48,12.6,29.06,26.96,4,16.03,.22,30.94-14.31,41.36-3.97,2.85-8.14,5.66-13.03,5.87-16.04,.66-32.19,1.95-48.07-1.22-84.09-16.76-158.61-54.02-225.62-106.77-13.4-10.55-25.4-23.14-38.64-33.8-29.2-23.51-55.15-50.45-83.24-75.08-14.95-13.11-26.9-29.01-39.75-44.04-11.82-13.81-22.99-28.17-34.64-42.13-2.67-3.2-5.15-6.98-11.28-8.26-6.34,22.46-11.91,45.44-7.92,68.58,4.62,26.76,9.48,53.58,16.86,79.88,8.85,31.54,21.35,61.66,33.71,91.83,21.53,52.53,46.71,103.43,70.77,154.82,1.58,3.38,3.55,6.91,3.85,10.49,2.25,26.53,18.9,45.93,32.67,66.71,13.92,21,30.64,39.85,46.93,58.96,10.43,12.24,22.81,22.5,36.05,31.81,13.53,9.51,19.27,27.53,14.69,42.77-4.68,15.55-17.43,25.81-34.22,27.28-13.31,1.16-23.75-5.88-33.72-13.03-24.6-17.65-43.96-40.61-62.79-63.98-27.73-34.43-48.21-72.81-65.86-113.39-9.96-22.88-21.65-45.35-32.65-67.94-30.47-62.6-59.3-126.03-79.97-192.61-13.3-42.82-24.1-86.5-24.28-131.89-.13-31.31,7.71-61.33,15.43-91.35,1.2-4.66,2.31-9.36,3.85-13.91,6.69-19.81,1.3-36.39-9.31-54.18-18.22-30.53-29.93-63.96-29.31-100.4,.27-16.01-1.77-32.16,2.43-47.99,.39-1.47,.47-3.48-.24-4.7-9.68-16.59-3.85-33.33-.46-49.95,.93-4.54,1.65-8.56-2.49-11.57-11.26-8.17-16.68-20.63-23.82-31.85-2.85-4.48-5.79-8.91-9.02-13.86-15.98,6.56-28.96,17.06-43.06,25.53-29.37,17.64-58.52,35.64-88.96,51.42-3.31,1.72-6.95,3.24-9.6,5.75-20.37,19.29-45.67,24.65-72.38,25.65-14.46,.54-28.97-.32-43.43,.24-18.65,.73-35.96-4.54-53.18-10.52-3.01-1.05-6.32-2.2-8.58-4.3-17.14-15.94-38.77-24.71-58.56-36.25-28.22-16.46-55.96-33.65-83.75-50.78-11.64-7.18-13.36-7.13-20.28,4.11-7.58,12.31-14.18,25.22-25.26,35-4.2,3.7-3.84,8.86-2.62,13.52,4.37,16.77,6.06,33.3-.11,50.16-1.54,4.2-.54,9.64,.28,14.33,6.39,36.44-.38,71.16-12.87,105.29-6.12,16.72-14.5,32.25-24.06,47.11-4.35,6.77-5.94,12.6-3.78,20.84,5.82,22.19,9.57,44.93,15.48,67.1,10.43,39.17,7.8,77.84,.55,117.25-11.92,64.8-36.06,125.18-62.09,185.1-21.78,50.12-45.95,99.09-69.21,148.51-13.94,29.61-28.05,58.93-46.41,86.1-21.45,31.75-48.22,58.71-76.18,84.56-5.04,4.66-11.2,8.3-17.28,11.61-18.13,9.88-38.3,5.46-50.12-10.57-11.74-15.92-10.43-36.98,5.55-50.54,15.14-12.86,29.9-26.02,43.3-40.58,26.52-28.83,49.72-60.2,68.95-94.4,1.83-3.26,4.56-6.76,4.57-10.17,.15-26.06,15.65-46.46,26.02-68.32,27.78-58.57,54.28-117.64,76.69-178.45,9.8-26.6,15.21-54.51,20.46-82.35,.69-3.67,1.51-7.31,2.29-10.96,5.56-25.79,2.72-58.91-8.03-85.1Z"/>
  <path class="cls-3" d="M2119.54,1406.55c2.52,68.56-9.29,131.96-30,193.61-21.14,62.92-53.51,120.03-94.04,172.63-19.25,24.99-30.21,53.98-36.7,84.64-4.7,22.19-5.38,44.49-.19,66.79,4.24,18.22,13.17,33.67,26.09,47.13,11.84,12.33,25.35,23.04,34.92,37.61,28.77,43.8,4.49,113.7-50.85,122.86-37.81,6.25-73.36-3.82-98.7-36.5-21.76-28.06-35.17-59.41-40.64-94.7-3.1-19.98-8.93-39.5-18.69-57.75-6.63-12.39-16.28-18.32-29.47-18.46-26.93-.28-51.28,8.58-74.51,21.72-30.74,17.38-49.66,45.36-66.2,74.76-27.16,48.29-42.41,100.37-42.01,156.19,.34,47.58,13.41,91.63,38.53,132.22,15.76,25.46,32.43,50.39,45.98,77.21,13.27,26.27,20.87,54.61,20.49,83.3-.56,41.85-12.38,80.92-41.29,113.57-15.52,17.54-32.65,32.38-53.8,42.12-46.27,21.3-91.37,18.59-134.36-8.91-38.79-24.8-63.51-60.19-73.89-104.87-11.58-49.81-1.77-96.67,23.57-140.38,15.29-26.38,32.77-51.51,47.41-78.22,16.32-29.78,26.83-61.85,27.37-96.27,.47-29.91,1.23-59.69-6.13-89.34-12.89-51.95-36.62-97.97-70.66-138.95-6.63-7.99-15.67-12.96-24.23-18.36-22.9-14.43-47.32-24.78-74.88-25.94-17.39-.73-29.28,6.33-36.82,22.66-7.95,17.22-12.68,35.1-15.86,53.59-5.42,31.58-17.62,60.37-34.94,87.25-24.72,38.37-75.57,52.08-111.22,42.73-23.03-6.04-38.15-21.57-47.86-41.97-16.52-34.67-10.9-73.3,23.34-102.23,35.13-29.68,50.46-67.1,43.11-114.15-5.07-32.43-16.04-62.15-32.24-89.97-9.63-16.54-22.79-30.97-33.52-46.92-46.66-69.33-77.04-145.12-90.25-227.82-5.83-36.49-10.34-73.1-8.79-109.98,3.32-79.07,18.52-155.57,50.51-228.56,21.86-49.88,49.33-96.3,83.23-138.56,36.28-45.24,77.9-85.37,125.41-119.04,52.33-37.09,108.82-66.12,169.73-86.14,35.02-11.51,71.01-18.88,107.47-24.95,15.19-2.53,30.04-5.28,45.41-5.2,2.68,.01,5.5-.45,8.01,.22,44.27,11.77,89.92,17.45,133.44,32.82,66.76,23.59,128.09,56.51,183.75,100.2,63.06,49.5,114.2,109.16,154.61,178.38,36.56,62.63,60.46,129.84,73.14,200.91,6,33.61,9.77,67.76,7.21,99.06Z"/>
  <path class="cls-3" d="M1675.77,2153.77c1.13-47.14,12.16-90.57,38.41-129.45,5.15-7.63,11.36-14.39,19.15-19.17,12.54-7.7,25.1-2.91,28.67,11.44,3.08,12.37,5.76,25.11,6.29,37.78,1.39,33.32,18.61,56.91,43.51,76.69,18.83,14.95,37.77,29.82,51.33,50.31,11.27,17.03,17.99,36.18,17.54,55.84-.8,34.7-17.81,61.1-56.54,69.77-50.63,11.32-101.76-20.5-123.22-58.96-12.35-22.13-21.49-45.39-22.43-71.22-.29-7.97-4.08-15.59-2.7-23.01Z"/>
  <path class="cls-3" d="M1423.38,2151.02c-.73,41.83-10.66,80.55-37.25,113.7-18.88,23.54-43.56,37.15-73.11,42.48-18.79,3.39-36.94,2.84-54.49-5.83-34.7-17.14-45.56-49.81-37.89-84.86,7.34-33.55,30.5-55.82,55.66-76.29,12.96-10.54,24.98-22.02,35.71-34.6,13.28-15.56,19.16-34.52,19.17-54.91,0-12.57,2.99-24.43,6.89-36.05,4.42-13.17,15.14-16.85,26.59-9.08,9.33,6.33,17.94,14.23,23.49,23.95,18.71,32.8,33.26,67.14,33.24,105.9,0,5.44,1.3,10.59,1.98,15.6Z"/>
  <path class="cls-9" d="M2057.28,1375.92c3.68,45.82-1.06,91.13-12.56,135.28-47.17,181.04-159.48,303.29-335.58,366.12-60.73,21.67-124.05,27.77-188.34,24.76-34.36-1.61-68.07-7.07-101.28-15.88-3.08-.82-6.39-1.05-8.7-3.67,24.01-7.08,45.03-19.58,64.52-35.04,6.28-4.98,13.26-9.07,19.88-13.63,23.22-15.99,48.65-23.91,77.1-23,28.39,.91,56.82,.54,85.22,.92,10.33,.14,20.14-2.5,30.07-4.65,10.69-2.31,17.76-9.81,23.89-17.94,4.91-6.51,4.58-14.53,.87-21.38-4.49-8.29-12.55-11.59-21.81-10.59-11.69,1.25-23.28,3.35-34.96,4.67-23.19,2.62-45.91,1.41-67.71-8.22-10.76-4.76-21.77-9.04-32.89-12.88-20.18-6.97-39.06-4.54-55.89,9.29-6.62,5.43-13.05,11.09-19.67,16.51-11.27,9.24-23.43,9.06-36.11,3.22-7.94-3.66-14.43-9.23-20.49-15.33-10.58-10.65-20.78-21.69-31.63-32.06-17.97-17.17-40.81-25.43-63.93-32.28-16.43-4.87-29.84,5.11-43.75,12.01-13.38,6.63-25.46,2.64-32.88-10.2-4.36-7.55-6.34-15.77-6.21-24.61,.15-10.3,2.98-20.08,5.03-30.01,5.35-25.94,1.17-48.98-19.76-67.21-4.44-3.87-8.35-8.34-12.75-12.26-23.41-20.89-42.55-45-57.69-72.62-8.21-14.98-15.03-30.94-26.21-44.15-7.63-9.01-15.52-11.17-24.08-7.49-8.62,3.71-11.57,10.58-9.44,23.03,.62,3.65,1.98,7.22,3.35,10.68,2.55,6.48,5.49,12.8,8.02,19.28,8.69,22.24,13.76,44.63,8.53,68.95-5.17,24.05-7.63,48.59-7.49,73.34,.03,6.33-1.84,12.67-2.84,19.01-16.95-23.82-27.32-50.89-37.64-77.85-27.92-72.96-35.74-148.91-28.99-226.12,6.14-70.23,27.46-136.32,61.96-197.97,1.28-2.29,3.07-4.3,4.62-6.45,26.31-5.06,49.66-15.71,68.64-35.24,5.54-5.7,12.01-10.6,18.5-15.26,13.12-9.44,24.58-20.39,34.21-33.44,12.49-16.92,28.76-28.4,49.81-32.42,5.23-1,10.38-2.43,15.56-3.73,19.91-4.99,38.11-13.44,54.51-25.98,11.03-8.44,22.9-15.63,35.39-21.86,11.93-5.96,23.71-12.31,35.17-19.13,23.87-14.2,39.5-35.22,48.93-61.09,0,0-.25,.03-.24,.03,1.54-.25,3.07-.5,4.61-.75,38.02-6.98,76.39-7.29,114.71-4.45,30.27,2.24,60.42,6.31,89.57,15.54-2.37,2.58-5.8,2.58-8.82,3.47-26.84,7.94-49.64,22.35-68.97,42.48-9.28,9.67-18.66,19.25-28.16,28.7-19.07,18.98-41.79,31.15-67.99,37.55-25.69,6.28-51.99,6.3-78.02,8.85-17.52,1.72-33.71,6.19-48.05,16.26-10.51,7.38-20.54,15.45-30.64,23.4-12.17,9.57-25.78,15.09-41.34,15.5-3.75,.1-7.54-.15-11.25,.26-14.54,1.62-28.72,4.47-39.43,15.62-8.1,8.43-11.01,18.35-6.4,29.51,4.37,10.59,13.03,15.23,24.08,15.7,6.96,.3,13.85,0,20.66-2.17,19.35-6.2,38.7-12.44,58.23-18.01,20.51-5.85,41.03-8.04,60.53,3.88,18.36,11.22,38.61,15.22,59.8,15.8,8.56,.23,17.29-.13,25.64,1.42,14.65,2.72,23.3,12.78,23.05,24.85-.23,11.34-6.11,16.3-22.88,20.15-17.51,4.02-35.23,1.71-52.86,2.26-11.77,.36-23.65-.21-35.28,1.25-11,1.39-16.69,8.24-17.74,17.81-1.03,9.37,3.49,17.07,13.57,21.26,7.89,3.27,16.16,5.66,24.31,8.27,24.12,7.72,47.34,17.34,67.14,33.57,9.51,7.8,18.27,16.52,27.55,24.6,6.49,5.65,13.99,8.43,22.18,4.02,9.01-4.86,13.21-13.73,11.32-22.98-3.25-15.82,4.66-27.93,10.27-41.04,3.19-7.46,7.74-9.24,15.22-5.39,8.14,4.2,16.25,8.48,23.07,14.51,24.45,21.63,52.6,36.58,82.99,47.92,9.5,3.54,18.94,7.68,27.64,12.85,12.69,7.55,20.01,17.22,17.2,34.35-2.81,17.16,2.42,33.96,14.64,47.59,9.74,10.87,21.07,19.73,33.34,27.57,12.73,8.13,23.79,18.05,32.72,30.46,13.51,18.77,16.15,37.94,4.42,58.54-16.41,28.82-18,60.24-14.37,92.04,1.86,16.23,1.48,32.05-1.85,47.83-2.81,13.33-9.99,23.5-23.45,28.37-5.52,2-11.19,3.96-16.18,6.95-7.08,4.25-10.24,13.9-7.56,21.13,2.77,7.48,8.6,10.58,16.33,10.49,2.68-.03,5.47,.24,8-.41,26.37-6.85,50.39-17.96,68.51-39.2,14.62-17.13,22.07-37.78,28.29-58.94,3.94-13.4,8.52-26.57,15.62-38.62,10.77-18.26,25.38-30.23,48.3-28.07,7.45,.7,15.01,.56,22.5,.3,30.09-1.02,45.43-16.28,45.93-46.2,.23-13.35-.76-26.67-1.98-40.04-2.15-23.66,2.2-46.17,21.53-62.71,8.51-7.28,17.16-14.6,27.5-19.39Zm-369.1,283.19c11.44,.78,23.61-1.17,35.48-4.43,29.52-8.1,40.77-26.15,32.61-55.6-6.5-23.48-4.57-44.82,5.85-66.83,10.82-22.85,13.57-47.12,4.22-71.72-15.87-41.74-46.71-66.67-88.5-79.47-20.96-6.42-42.05-12.47-62.83-19.45-14.68-4.93-28.6-11.92-43.41-16.7-25.46-8.22-48.4-3.9-69.46,12.19-7.23,5.52-14.49,11.01-21.93,16.25-11.78,8.3-24.32,9.52-38.14,5.08-12.87-4.14-24.31-11.09-36.47-16.59-27.5-12.43-48.6-.13-61.55,15.72-5.07,6.2-9.5,12.95-14.03,19.57-6.91,10.11-15.85,15.08-28.58,13.93-12.24-1.11-24.66-1.56-36.92-.93-24.18,1.24-37.94,23.53-28.76,45.86,4.38,10.65,11.81,19.11,21.01,25.88,21.01,15.47,45.59,23.51,69.73,32.15,7.88,2.82,16.9,1.86,25.25-1.36,7.48-2.89,15.18-5.22,22.75-7.9,5.61-1.99,11.3-3.14,17.3-2.95,21,.65,31.01,14.39,24.95,34.5-4.37,14.48-11.76,27.6-19.32,40.51-5.73,9.78-10.8,19.81-14.21,30.49-3.39,10.59-6.74,21.28-4.63,32.93,5.41,29.97,23.88,48.05,51.52,58.24,22.02,8.12,44.08,6.61,66.21,.62,20.28-5.49,39.03-14.68,57.76-23.91,26.34-12.98,53.79-20.01,83.54-19.11,16.61,.5,32.99,3.69,50.6,3.03Z"/>
  <path class="cls-13" d="M2057.28,1375.92c-10.34,4.79-18.99,12.11-27.5,19.39-19.33,16.54-23.68,39.05-21.53,62.71,1.22,13.37,2.2,26.69,1.98,40.04-.5,29.93-15.84,45.19-45.93,46.2-7.49,.25-15.06,.4-22.5-.3-22.92-2.16-37.53,9.81-48.3,28.07-7.1,12.04-11.68,25.22-15.62,38.62-6.23,21.17-13.68,41.81-28.29,58.94-18.13,21.24-42.14,32.35-68.51,39.2-2.53,.66-5.33,.38-8,.41-7.73,.09-13.57-3.01-16.33-10.49-2.67-7.23,.48-16.88,7.56-21.13,4.99-3,10.66-4.96,16.18-6.95,13.46-4.87,20.64-15.04,23.45-28.37,3.33-15.77,3.71-31.6,1.85-47.83-3.64-31.8-2.04-63.22,14.37-92.04,11.73-20.6,9.09-39.77-4.42-58.54-8.93-12.41-20-22.33-32.72-30.46-12.27-7.84-23.6-16.7-33.34-27.57-12.22-13.64-17.45-30.43-14.64-47.59,2.81-17.13-4.5-26.81-17.2-34.35-8.69-5.17-18.13-9.31-27.64-12.85-30.39-11.33-58.54-26.29-82.99-47.92-6.81-6.03-14.93-10.31-23.07-14.51-7.47-3.86-12.03-2.08-15.22,5.39-5.61,13.11-13.52,25.22-10.27,41.04,1.9,9.24-2.3,18.12-11.32,22.98-8.18,4.41-15.68,1.63-22.18-4.02-9.29-8.08-18.04-16.81-27.55-24.6-19.8-16.22-43.02-25.84-67.14-33.57-8.15-2.61-16.42-4.99-24.31-8.27-10.09-4.19-14.6-11.89-13.57-21.26,1.05-9.57,6.74-16.43,17.74-17.81,11.63-1.47,23.51-.89,35.28-1.25,17.63-.54,35.35,1.76,52.86-2.26,16.76-3.85,22.64-8.82,22.88-20.15,.25-12.07-8.4-22.13-23.05-24.85-8.35-1.55-17.07-1.19-25.64-1.42-21.19-.58-41.44-4.58-59.8-15.8-19.5-11.92-40.03-9.72-60.53-3.88-19.53,5.57-38.88,11.81-58.23,18.01-6.81,2.18-13.7,2.47-20.66,2.17-11.06-.47-19.71-5.11-24.08-15.7-4.61-11.17-1.7-21.08,6.4-29.51,10.71-11.15,24.89-14,39.43-15.62,3.71-.41,7.5-.17,11.25-.26,15.56-.41,29.17-5.93,41.34-15.5,10.1-7.95,20.13-16.02,30.64-23.4,14.34-10.07,30.52-14.54,48.05-16.26,26.03-2.56,52.34-2.58,78.02-8.85,26.2-6.4,48.92-18.56,67.99-37.55,9.5-9.46,18.88-19.03,28.16-28.7,19.33-20.14,42.14-34.54,68.97-42.48,3.01-.89,6.45-.9,8.82-3.47,41.19,8.74,79.7,24.8,116.06,45.47,140.07,79.62,225.32,199.05,256.14,357.05,4.58,23.5,8.39,47.41,6.68,71.66Z"/>
  <path class="cls-13" d="M1109.11,1647.92c1-6.34,2.88-12.68,2.84-19.01-.14-24.74,2.32-49.29,7.49-73.34,5.23-24.32,.17-46.71-8.53-68.95-2.53-6.48-5.47-12.81-8.02-19.28-1.37-3.47-2.72-7.04-3.35-10.68-2.13-12.45,.82-19.32,9.44-23.03,8.55-3.69,16.45-1.52,24.08,7.49,11.18,13.21,18,29.17,26.21,44.15,15.14,27.61,34.28,51.72,57.69,72.62,4.4,3.92,8.31,8.39,12.75,12.26,20.93,18.23,25.1,41.27,19.76,67.21-2.05,9.93-4.87,19.71-5.03,30.01-.13,8.84,1.86,17.06,6.21,24.61,7.41,12.85,19.5,16.84,32.88,10.2,13.91-6.9,27.32-16.88,43.75-12.01,23.12,6.85,45.96,15.11,63.93,32.28,10.85,10.36,21.04,21.41,31.63,32.06,6.06,6.1,12.55,11.67,20.49,15.33,12.68,5.84,24.84,6.01,36.11-3.22,6.62-5.43,13.06-11.08,19.67-16.51,16.83-13.82,35.71-16.26,55.89-9.29,11.12,3.84,22.13,8.13,32.89,12.88,21.8,9.64,44.52,10.85,67.71,8.22,11.68-1.32,23.28-3.42,34.96-4.67,9.26-.99,17.33,2.31,21.81,10.59,3.71,6.85,4.04,14.87-.87,21.38-6.14,8.12-13.2,15.62-23.89,17.94-9.93,2.15-19.74,4.79-30.07,4.65-28.41-.39-56.84-.01-85.22-.92-28.45-.91-53.88,7-77.1,23-6.62,4.56-13.6,8.64-19.88,13.63-19.49,15.46-40.51,27.96-64.52,35.04-42.55-9.91-81.74-28.06-119.14-49.97-73.81-43.23-132.99-101.6-177.5-174.72-1.93-3.16-3.39-6.61-5.07-9.92Z"/>
  <path class="cls-13" d="M1469.77,891.38c-9.43,25.88-25.06,46.89-48.93,61.09-11.46,6.82-23.23,13.17-35.17,19.13-12.49,6.23-24.36,13.42-35.39,21.86-16.39,12.54-34.59,20.99-54.51,25.98-5.17,1.3-10.33,2.72-15.56,3.73-21.04,4.03-37.31,15.5-49.81,32.42-9.63,13.05-21.09,24-34.21,33.44-6.48,4.66-12.96,9.56-18.5,15.26-18.97,19.54-42.32,30.19-68.64,35.24,.71-4.96,3.78-8.79,6.33-12.82,80.41-126.88,194.52-204.68,341.62-234.31,4.15-.84,8.49-.71,12.75-1.03Z"/>
  <path class="cls-13" d="M1474.14,890.65c-1.54,.25-3.07,.5-4.61,.75,1.43-.89,2.86-1.84,4.61-.75Z"/>
  <path class="cls-3" d="M1688.19,1659.12c-17.62,.66-34-2.53-50.6-3.03-29.75-.9-57.2,6.13-83.54,19.11-18.73,9.23-37.48,18.42-57.76,23.91-22.13,5.99-44.19,7.5-66.21-.62-27.64-10.2-46.1-28.27-51.52-58.24-2.1-11.65,1.25-22.34,4.63-32.93,3.41-10.68,8.49-20.71,14.21-30.49,7.56-12.91,14.95-26.03,19.32-40.51,6.06-20.1-3.94-33.85-24.95-34.5-6-.18-11.69,.96-17.3,2.95-7.57,2.68-15.27,5.01-22.75,7.9-8.35,3.22-17.37,4.18-25.25,1.36-24.13-8.64-48.71-16.68-69.73-32.15-9.2-6.77-16.62-15.23-21.01-25.88-9.18-22.32,4.58-44.61,28.76-45.86,12.27-.63,24.68-.18,36.92,.93,12.73,1.15,21.67-3.82,28.58-13.93,4.53-6.63,8.96-13.37,14.03-19.57,12.95-15.85,34.05-28.15,61.55-15.72,12.16,5.5,23.6,12.45,36.47,16.59,13.82,4.45,26.37,3.22,38.14-5.08,7.44-5.24,14.7-10.73,21.93-16.25,21.06-16.09,44-20.4,69.46-12.19,14.81,4.78,28.73,11.77,43.41,16.7,20.78,6.97,41.87,13.02,62.83,19.45,41.79,12.8,72.63,37.73,88.5,79.47,9.35,24.6,6.6,48.87-4.22,71.72-10.42,22.01-12.35,43.35-5.85,66.83,8.16,29.46-3.09,47.5-32.61,55.6-11.86,3.26-24.04,5.21-35.48,4.43Z"/>
  <path class="cls-7" d="M1188.18,789.97c-4.8-30.15-13.03-59.56-19.42-89.37-8.52-39.76-19.9-78.93-24.98-119.4-2.28-18.13-3.53-36.33-.17-54.42,3.45-18.56,14.69-23.68,31.67-14.97,7.25,3.72,12.98,9.39,18.69,15.06,28.22,28.04,50.95,60.65,75.79,91.49,8.97,11.13,17.66,22.49,28.06,35.76,2.52-8.49,1.59-14.72,1.25-20.7-3.74-65.23-11.42-130.06-20.3-194.75-.66-4.82-1.26-9.58-.25-14.36,2.46-11.66,11.6-15.67,21.64-8.98,10.07,6.7,16.46,16.65,21.9,27.26,17.4,33.9,30.78,69.5,44.42,104.97,16.15,41.99,30.51,84.61,44.7,127.29,1.6,4.83,3.59,9.53,6.55,17.34,10.31-21.36,18.58-40.38,33.2-55.33,11.36-11.4,22.47-23.6,38.18-28.68,56.62-18.3,110.56-18.34,157.24,25.49,15.04,16.85,25.5,36.49,34.09,57.77,5.71-5.57,6.3-12.27,8.25-18.24,22.2-67.77,45.98-134.96,74.23-200.48,6.37-14.77,12.82-29.51,21.88-42.92,4.24-6.29,8.98-12.09,15.98-15.47,10.08-4.85,18.6-.49,19.53,10.73,.62,7.41,.11,15.05-.9,22.45-7.46,54.15-14.15,108.39-17.71,162.96-.82,12.64-2.42,25.38-.61,39.13,7.19-1.62,9.69-7.26,13.11-11.56,24.72-31.02,49.3-62.15,74.01-93.18,7.7-9.67,16.3-18.51,25.93-26.29,4.59-3.71,9.45-7.13,15.14-8.98,14.46-4.71,22.84,.02,25.88,14.97,4.66,23,2.18,45.96-1.52,68.74-7.92,48.71-21.33,96.24-31.72,144.43-3.92,18.17-8.07,36.29-12.04,54.08,5.21,3,8.5,.13,11.88-.61,25.21-5.56,48,8.64,52.69,34.19,4.48,24.41,3.4,49.14,1.64,73.77-.91,12.75-2.31,25.47-3.55,38.85,10.61,3.52,20.58-.52,30.25-2.01,72.96-11.22,139.04-38.63,196.79-85.23,19.77-15.96,35.73-35.43,52.07-54.6,3.82-4.48,5.87-12.85,14.45-9.36,5.36,2.18,4.08,7.81-3.13,17.62-43.96,59.87-102.54,99.66-171.58,125.12-35.9,13.24-73.05,21.18-111.02,25.14-7.67,.8-11.12,2.92-12.42,11.03-10.21,63.61-25.57,126.05-45.31,187.33-4.94,15.33-2.29,26.67,6.33,40.1,47.16,73.47,109.15,133.43,172.68,191.99,39.57,36.47,84.06,66.49,129.54,94.96,36.11,22.6,74.86,39.38,116.38,49.49,12.56,3.06,25.43,3.55,38.17,5.15,3.2,.4,6.52,.22,8.97,2.72,2.06,2.1,2.52,4.8,1.44,7.42-1.64,3.97-5.27,5.6-9.14,5.21-13.31-1.33-26.8-2.04-39.81-4.86-46.61-10.13-89.31-29.94-129.6-55.03-77.85-48.49-147.02-107.25-209.54-174.38-33.36-35.82-65.25-72.49-91.66-113.76-1.1-1.72-2.76-3.07-5.37-5.91-13.8,40.97-25.88,80.66-24.14,123.35,1.23,30.24,5.61,59.9,16.62,88.06,28.48,72.88,53.32,147.16,83.81,219.25,21.53,50.91,47.17,99.83,74.91,147.62,16.94,29.18,39.34,53.46,68.08,71.55,1.81,1.14,3.73,2.16,5.33,3.56,2.58,2.26,4.17,5.12,2.18,8.48-2.29,3.88-5.85,4.54-9.69,2.55-3.8-1.96-7.49-4.16-11.09-6.48-30.89-19.93-54.18-46.93-72.17-78.62-39.48-69.58-74.79-141.13-101.31-216.77-21.65-61.74-45.23-122.72-74-181.52-15.61-31.9-18.54-64.06-8.55-98.25,10.21-34.97,18.41-70.52,28.09-105.65,1.91-6.93,1.63-12.18-2.67-17.87-8.68-11.46-18.42-23.12-24.44-35.3-8.25-16.7-15.4-35.15-15.7-55.13-.42-28.52,2.07-56.75,5.55-84.96,1.84-14.89,3.32-29.83,5.55-44.67,1.08-7.18-.76-12.15-6.48-16.71-12.63-10.04-23.95-21.6-33.63-34.47-5.52-7.34-10.3-7.23-17.43-2.79-22.28,13.9-44.93,27.22-67.29,40.99-40.44,24.9-77.32,55.88-125.39,71.58,8.74,10.18,15.48,19.64,21.46,29.59,1,1.67,3.16,3.05,5.07,3.71,20.59,7.09,26.25,24.7,28.21,43.13,2.95,27.74-7.02,51.77-26.97,71.12-12.24,11.88-27.84,16.32-44.52,14.02-8.99-1.24-12.1,2.16-15.24,9.67-10.27,24.57-15.08,49.88-15.8,76.56-1.65,60.59,.46,121.21-1.51,181.75-1.1,33.81,1.8,67.49,.46,101.23-.26,6.59,2.06,15.02-8.23,16.35-6.33,.82-9.07-3.81-9.08-15.6-.02-69.7,0-139.41,.21-209.11,.1-35.4-.51-70.75-3.64-106.03-1.54-17.42-9.81-32.74-15.26-48.94-1.54-4.59-4.65-6.3-9.77-6.35-43.3-.46-67.96-22.24-74.86-65.12-2.67-16.6,.31-31.92,8.16-46.56,2.32-4.32,4.79-9.53,9.19-10.83,15.03-4.43,20.69-17.56,28.64-28.67,1.85-2.58,3.77-5.12,5.22-7.09-.13-2.61-.76-4.09-2.4-4.67-28.63-10.01-53.9-26.18-78.87-42.91-35.19-23.59-71.05-46.1-107.76-67.27-10.66-6.14-10.95-6.25-18.4,3.03-10.11,12.6-20.89,24.55-33.84,34.22-5.52,4.12-7.09,8.46-6.26,15.03,3.54,28.17,6.05,56.49,10.17,84.57,4.95,33.76,.77,66.12-11.57,97.69-1.2,3.07-2.99,5.45-5.37,7.78-10.08,9.87-15.53,23.01-23.66,34.28-3.59,4.98-1.87,10.15-.48,15.41,8.76,33.16,16.43,66.65,26.36,99.46,11.13,36.76,8.95,71.27-8.18,105.97-32.32,65.45-56.6,134.24-81.72,202.68-25.56,69.64-59.1,135.58-96.28,199.65-16.36,28.2-38.4,51.51-65.14,70.23-4.8,3.36-10.07,6.09-15.29,8.78-3.14,1.62-6.38,1.27-8.28-2.17-1.76-3.2-.92-6.22,1.63-8.71,1.14-1.11,2.42-2.15,3.78-2.97,39.02-23.71,63.56-59.59,84.86-98.75,39.03-71.75,72.4-145.89,99.27-223.04,12.16-34.91,25.83-69.3,39.39-103.7,25.08-63.64,29.22-127.99,7.54-193.36-3.31-9.99-5.01-20.57-9.93-30.09-5.6,1.08-6.92,5.62-9.12,9.05-23.76,37.2-51.62,71.06-82.37,102.69-42.63,43.85-85.03,87.96-134.38,124.49-54.8,40.57-110.44,79.73-176.08,101.73-22.02,7.38-44.51,11.64-67.46,14.15-1.59,.17-3.21,.17-4.82,.2-5.68,.09-11.9-.58-12.08-7.47-.19-6.94,6.01-7.63,11.68-8.02,58.91-4.02,110.74-27.81,160.04-58.1,81.01-49.77,151.43-112.07,215.85-181.75,30.7-33.21,58.59-68.27,83.32-106.07,6.39-9.77,8.66-18.16,5.11-29.78-14.57-47.65-28.45-95.53-37.88-144.55-2.94-15.26-5.66-30.56-8.44-45.84-2.24-12.35-2.2-12.38-14.87-13.87-61.92-7.28-120.42-24.82-174.89-55.86-42.74-24.35-77.23-57.43-107.08-95.91-1.63-2.1-2.99-4.46-4.13-6.87-1.88-3.96-1-7.4,2.91-9.58,3.43-1.91,6.23-.25,8.43,2.36,3.81,4.5,7.5,9.09,11.14,13.73,47.43,60.43,110.43,97.18,182.57,119.98,25.63,8.1,52.09,12.39,78.6,16.3,10.72,1.58,12.53,.09,11.17-10.92-3.36-27.23-3.7-54.53-3.17-81.89,.15-7.52,.57-14.99,2.45-22.33,6.4-24.93,26.73-37.5,52.42-32.38,2.63,.52,5.29,.9,7.94,1.34,.93,.41,2.16,1.42,2.72,1.13,1.95-1.01,1.2-2.52,.13-3.86Zm-22.06-217.12c.69,7.58,.82,14.44,2.01,21.1,3.11,17.38,6.55,34.71,10.1,52.02,10.65,51.93,29.04,101.96,37.82,154.34,.76,4.51,2.95,7.99,7.01,10.2,21.58,11.72,43.16,23.43,65.5,35.56,1.3-4.2,2.9-7.6,3.37-11.16,3.35-25.47,6.72-50.93,7-76.71,.42-39.39,.61-39.39-23.35-69.84-1.99-2.53-3.89-5.12-5.85-7.67-26.86-34.85-54.8-68.74-87.53-98.35-4.17-3.77-7.69-8.83-16.06-9.49Zm643.21,271.91c5.63,1.09,8.7-2.46,12.3-4.43,15.51-8.49,30.51-18.08,46.56-25.37,10.77-4.89,14.79-12.26,16.79-22.98,3.04-16.3,6.66-32.54,11-48.54,12.21-44.96,24.87-89.81,32.45-135.85,1.94-11.77,5.96-23.49,4.12-38.7-10.19,8.99-18.8,16.01-26.76,23.7-30.95,29.88-56.5,64.38-83.92,97.34-16.14,19.4-22.55,39.36-21.48,64.41,1.3,30.45,3.64,60.56,8.94,90.4Zm-488.94-95.05c-1.47,.35-2.95,.7-4.42,1.05,0,7.84,.16,15.68-.03,23.52-.61,24.61-.7,49.43-9.45,72.83-2.66,7.11-1.65,10.13,4.31,14.14,36.4,24.56,72.43,49.66,108.82,74.25,18.02,12.18,36.81,23.09,57.47,31.05-55.7-69.99-104.8-144.43-156.69-216.84Zm460.77-3.19c-52.94,74.05-101.87,147.53-159.37,218.82,10.11-.89,14.91-4.44,19.88-7.15,52.41-28.56,98.71-66.34,148.74-98.51,4.53-2.91,4.89-5.82,2.87-10.7-6.47-15.55-7.82-32.14-8.75-48.76-.94-16.88-2.1-33.74-3.37-53.7Zm-468.03-236.57c-.88,5.28-1.37,6.73-1.33,8.18,1.44,50.78,3,101.55,4.31,152.33,.15,5.73,2.12,10.3,5.49,14.63,27.95,35.85,55.82,71.76,83.86,107.53,2.03,2.59,3.52,6.94,8.79,5.5,.22-12.43-2.42-24.32-6.19-36.09-20.71-64.67-44.8-128.14-67.8-192-7.02-19.48-14.29-39-27.13-60.07Zm474.07,1.45c-9.4,11.93-15.45,25.05-20.46,38.51-27.03,72.68-54.15,145.34-77.83,219.22-3.09,9.65-4.01,19.32-2.92,29.58,1.92-.63,3.21-.64,3.75-1.28,30.71-36.44,58.69-75.01,88.07-112.49,2.74-3.49,4.01-7.23,4.36-11.73,4.22-53.8,2.81-107.79,5.03-161.8Zm95.75,428.15c-1.43,3.07-2.44,4.44-2.7,5.95-5.94,34.2-11.46,68.46-14.03,103.11-1.36,18.3-.22,36.35,6,53.79,5.18,14.52,13.63,26.96,24.17,40.37,1.77-5.63,2.91-8.63,3.65-11.73,10.75-44.66,21.34-89.35,30.13-134.45,2.04-10.48,4.17-20.95,6.03-31.47,.8-4.49,.47-8.6-5.59-9.38-16.63-2.13-31.57-9.5-47.66-16.19Zm-680.05,201.92c23.03-24.93,32.05-53.69,30.61-85.75-.79-17.56-2.91-35.11-5.43-52.52-3.04-20.97-5.1-42.16-10.75-63.26-13.02,3.48-24.11,10.19-36.6,13.17-19.41,4.62-19.33,4.96-15.77,24.14,.29,1.57,.83,3.1,1.16,4.66,8.19,38.09,16.04,76.25,24.7,114.23,3.39,14.88,5.85,30.13,12.08,45.32Zm-47.8-266.97c-1.55,19.35,1.99,38.41,3.02,57.62,.41,7.63,3.22,10.1,11.23,8.35,13.73-3.01,26.4-8.5,39.12-14.11,6.03-2.66,7.27-6.9,6.1-12.95-4.75-24.65-9.72-49.27-13.69-74.05-1.64-10.26-6.66-15.05-16.48-15.96-2.65-.25-5.26-.97-7.89-1.39-13.39-2.14-16.42,.29-19.54,14.13-2.87,12.73-1.44,25.58-1.86,38.37Zm787.74,7.01c0-14.4,.64-28.84-.18-43.19-.84-14.88-6.08-18.41-20.64-16-4.2,.7-8.43,1.32-12.57,2.32-4.96,1.19-8.24,3.9-9.56,9.4-6.34,26.45-10.76,53.25-15.02,80.09-.98,6.16,1.22,9.97,6.95,12.63,12.61,5.86,25.37,10.97,39.09,13.77,6.18,1.26,8.31-.08,9.54-6.37,3.4-17.45,2.08-35.11,2.39-52.64Zm-67.55-41.6c-19.14,9.07-35.77,17.64-51.99,28.32,11.13,15.78,22.99,28.2,38.64,40.58,4.66-24.07,8.78-45.31,13.35-68.9Zm-598.8,28.33c-17.29-10.18-32.93-19.69-52.45-28.32,4.61,23.86,8.67,44.91,13.26,68.67,15.43-12.65,27.29-25.09,39.19-40.35Z"/>
  <path class="cls-2" d="M1646.35,633.67c-46.68-43.83-100.62-43.79-157.24-25.49-15.7,5.08-26.82,17.28-38.18,28.68,.8-49.56,18.71-91.66,56.93-123.55,24.57-20.5,53.72-21.1,79.94-2.61,29,20.45,47.46,48.76,55.14,83.46,2.85,12.87,6.02,26.02,3.41,39.51Z"/>
  <path class="cls-8" d="M1205.76,829.03c9.8,22.9,12.76,47.54,17.4,71.65,9.11,47.32,19.45,94.56,18.5,143.23-.24,12.33-1.07,24.39-9.5,36.58,.45-46.56-7.29-90.67-13.55-134.88-5.03-35.51-11.84-70.76-17.88-106.12-.36-2.11-1.1-4.17-1.35-6.28-1.61-13.61-1.62-13.51-14.57-17.13-9.81-2.75-19.84-4.34-29.76-6.49-8.36-1.81-9.7,1.44-11.19,8.43-5.1,23.89-4.88,47.93-3.59,72.06,2.7,50.46,11.83,99.96,21.8,149.39,12.83,63.64,31.84,125.5,51.45,187.29,10.72,33.8,17.76,68.57,12.07,104.52-2.01,12.7-6.1,24.43-17.89,36.82,.61-8.7,.55-13.84,1.4-18.82,7.18-42.33,.62-83.4-12.31-123.58-16.57-51.5-32.8-103.04-44.43-155.97-16.24-73.89-30.51-147.98-30.24-224.08,.04-10.22-.31-20.48,3.93-30.04,7.76-17.49,26.75-27.47,46.15-24.48,3.17,.49,6.25,1.53,9.42,2.08,7.76,1.34,9.97-.48,8.24-8.26-3.02-13.58-6.69-27.02-10.25-40.47-9.58-36.22-17.74-72.8-26.75-109.14-6.9-27.84-10.61-56.82-11.28-85.86-.21-9.23,1.57-18.16,3.07-27.11,1.81-10.82,8.56-15.62,19.36-14.23,8.14,1.05,14.94,4.93,21.39,10.14,15.16,12.23,26.16,28.04,38.41,42.81,22.92,27.63,46.75,54.55,65.43,85.43,.55,.92,.91,2.13,1.71,2.69,2.06,1.43,3.9,3.89,6.98,2.31,2.42-1.24,1.94-3.59,1.84-5.57-.78-14.44-1.68-28.87-2.53-43.3-2.24-38-8.75-75.52-12.61-113.33-.49-4.79-.96-9.61-.98-14.41-.01-3.44-1.95-8.46,3.17-9.45,3.73-.72,6.74,2.59,9.23,5.54,3.41,4.02,3.23,9,3.7,13.73,4.12,41.6,7.96,83.23,12.25,124.82,2.09,20.25,4.71,40.42,3.9,60.85-.27,6.67,2.07,12.46,6.18,17.79,27.17,35.21,56.97,68.33,82.67,104.69,1.42,2,2.54,5.04,5.96,4.17,4.13-1.05,4.16-4.73,3.81-7.73-.68-5.82-1-12.04-3.36-17.23-7.98-17.5-8.92-36.25-10.77-54.82-4.18-41.88-15.69-82.08-28.8-121.74-12.25-37.08-23.83-74.5-39.99-110.15-11.24-24.79-21.98-50.09-44.68-69.68,8.57-3.07,13.49,.54,17.92,4.79,8.57,8.22,15.47,17.64,20.46,28.55,32.56,71.15,61.28,143.69,83.14,218.96,5.63,19.4,13.83,38.06,14.98,60.55,5.7-3.82,6.37-7.85,7.64-11.47,7.81-22.22,15.06-44.63,24.84-66.12,10.33-22.71,24.05-42.98,42.02-60.3,5.32-5.13,10.94-9.38,17.63-1.75,.05,9.62-10.78,11.66-13.49,19.36-18.71,17.79-29.43,40.51-38.37,64.04-11.77,30.97-21.87,62.55-34.17,93.35-5.61,14.04-7.94,29.06-6.73,44.13,4.03,50.18,20.32,96,50.34,136.67,7.19,9.73,16.34,17.22,27.89,20.73,9.91,3,20.29,5.02,30.21-1.54-2.46-5.57-7.1-7.64-10.4-10.97-40.21-40.6-60.19-87.85-47.61-145.64,4.8-22.05,13.46-42.82,22.63-63.32,10.47-23.39,15.41-47.7,14.37-73.32-.87-21.41-.26-42.8,1.27-64.17,3.68-5.09,4.19-11.94,9.09-16.36,7.28-.54,12.55,2.01,9.46,10-8.25,21.35-5.99,43.42-4.8,65.2,1.64,30.07-2.84,58.62-15.28,86.07-7.51,16.57-14.35,33.43-19.14,51.07-15.67,57.64,3.5,104.16,45.82,143.05,11.58,10.64,14.02,10.63,25.53,.21,38.36-34.75,64.81-84.83,44.22-149.3-4.57-14.31-9.91-28.31-16.19-41.93-13.53-29.34-18.92-59.87-16.68-92.23,1.44-20.7,2.9-41.74-4.57-62.04-2.34-6.36-.05-10.65,7.7-9.7,2.33,.29,3.86,1.78,6.65-.94,8.54-8.34,9.63-8.29,17.5-.8,16.47,15.67,29.43,33.98,39.33,54.44,10.52,21.74,18.18,44.58,26,67.37,1.79,5.23,2.45,11.35,6.58,14.68,23.98-78.54,45.58-157.26,80.74-231.37,6.87-14.49,12.81-29.43,19.02-44.23,4.84-11.55,11.88-21.56,20.84-30.21,5.49-5.31,5.62-5.19,17.87-6.38-34.27,36.64-49.49,82.25-65.57,127.5-16.5,46.43-32.52,93-42.05,141.47-2.38,12.07-3.73,24.35-5.41,36.56-2.25,16.33-2.63,32.82-9.39,48.52-3.88,9.01-6.58,19.31-3.12,29.55,4.5,2.15,5.92-1.61,7.53-3.98,24.2-35.48,53.31-67.1,79.52-100.99,6.21-8.03,9.63-15.71,9.75-26.08,.46-40.2,7.38-79.92,10.16-119.97,1.41-20.3,3.72-40.55,5.98-60.79,1.01-9.05,1.88-18.64,15.59-22.05,.86,15.04,.33,29.57-1.91,44.09-6.85,44.45-11.03,89.15-13.16,134.06-.15,3.09-1.71,6.91,1.72,8.58,4.4,2.14,6.95-1.7,8.84-4.8,20.7-34.08,47.91-63.08,72.53-94.12,9.71-12.24,19.79-23.75,31.48-33.93,3.19-2.78,6.37-5.49,10.47-7.25,18.2-7.83,30.13-1.28,31.46,17.67,1.02,14.51,1.89,29.02-.04,43.33-3.86,28.57-6.77,57.23-15.02,85.19-12.28,41.57-19.24,84.53-31.23,126.22-2.66,9.26-.3,11.48,9.66,9.07,10.21-2.48,19.92-2.32,29.98,.88,13.63,4.34,21.25,14.27,25.39,26.86,2.47,7.51,3.12,15.68,2.88,23.84-1.86,64.41-9.27,128.04-23.28,191.06-13.26,59.63-27.64,118.82-47.65,176.62-13.41,38.73-21.86,78.45-18.43,119.85,.91,11.01,2.36,21.97,3.95,36.45-15.42-15.43-18.78-31.67-19.93-48.74-1.98-29.29,3.71-57.63,11.25-85.66,3.34-12.4,7.05-24.73,11.24-36.86,28.8-83.34,47.01-169.13,59.55-256.23,4.59-31.89,7.83-64.22,4.36-96.19-4.71-43.36,2.28-37.99-38.93-29.98-2.09,.41-4.07,1.41-6.16,1.8-8.76,1.63-12.84,4.02-14.02,15.63-3.12,30.79-10.6,61.11-15.53,91.75-7.66,47.58-14.39,95.29-17.37,143.45-.23,3.69-.03,7.4-.03,12.83-7.36-10.58-8.77-21.71-9.04-32.98-.61-25.79,1.35-51.48,5.86-76.84,6.74-37.97,14.18-75.81,21.7-113.63,2.03-10.24,5.4-20.21,8.37-31.11-7.17-1.48-12.03,2.32-17.07,4.6-43.08,19.43-82.8,44.81-122.63,69.95-27.17,17.15-54.1,34.69-81.13,52.07-21.63,13.91-43.82,26.81-69.71,37.18,11.34,12.18,21.73,24.08,27.93,39.72-12.66,.99-24.31,.84-35.65,4.77-7.67,2.65-12.1-1.75-12.19-9.93-.04-3.19,.93-6.4,.83-9.58-.43-13.07-4.31-24.12-17.52-29.88-13.96-6.08-27.29-4.9-39.47,3.87-10.23,7.36-11.49,18.7-11.17,30.3,.45,16.16-2.18,18.73-17.24,13.6-9.51-3.24-19.16-1.28-29.57-3.3,5.99-15.16,15.73-27.39,27.84-39.17-50.52-21.39-92.98-53.26-137.71-81.33-38.55-24.2-76.81-48.86-117.42-69.57-10-5.1-19.99-10.3-30.82-13.53-2.65-1.32-5.97-3.92-8.17-1.23-2.25,2.75,1.68,3.77,3.51,5.11Zm266.55,134.84c-4.62-9.68-9.2-18.78-16.39-26.73-11.41-12.62-24.14-24.63-29.18-41.77-9.06-30.77-26.91-56.9-43.64-83.7-47.53-76.11-104.48-145.24-159.69-215.65-16.56-21.12-35.39-40.27-56.04-57.5-3.04-2.53-5.29-7.01-10.91-5.91-2.25,18.75-.28,37.47,1.75,56,7.8,71.12,27.78,139.55,46.92,208.16,1.28,4.58,3.2,7.52,7.56,9.38,21.22,9.02,40.32,22.02,60.71,32.63,18.32,9.53,18.79,9.63,21.96-11,.49-3.17,.69-6.39,.99-9.6,2.63-28.33,2.94-56.73,2.8-85.15-.02-3.22-.93-6.83,1.4-10.42,7.57,6.92,8.5,14.76,8.61,22.87,.4,27.9-.92,55.73-3.99,83.47-.87,7.83-2.65,15.34-10.54,19.7,57.87,42.22,115.02,82.79,177.69,115.21Zm469.58-433.44c-5.41,4.22-9.62,7.18-13.46,10.57-17.71,15.61-34.5,32.2-49.3,50.59-21.48,26.71-42.31,53.94-63.58,80.81-39.25,49.59-76.42,100.65-109.57,154.55-9.53,15.49-21.16,30.29-26.16,47.74-7.48,26.13-21.72,47.39-40.14,66.53-5.79,6.02-11.01,12.43-12.51,21.72,62.93-31.75,119.75-72.58,176.44-113.89-7.73-8.8-8.02-8.76-8.99-15.44-4.39-30.29-5.48-60.78-4.84-91.33,.16-7.44,2.09-14.37,8.28-19.39,3.64,2.44,2.23,5.31,2.27,7.66,.5,26.24,.61,52.49,1.39,78.72,.27,9.04,1.64,18.12,3.38,27.01,2.06,10.54,4.34,11.3,14.03,6.15,22.64-12.04,44.23-26.02,67.66-36.57,4.52-2.04,6.08-5.47,7.24-9.77,17.03-63.01,35.84-125.59,44.56-190.54,3.25-24.23,5.7-48.51,3.3-75.13Zm-374.2,435.05c11.15,4.89,21.72,5.13,32.6,.8,13.6-5.41,22.8-15.5,30.75-27.2,22.32-32.85,36.27-68.93,42.66-108.11,3.78-23.17,3.63-46.04-5.22-67.98-11.62-28.79-21.23-58.28-31.92-87.4-9.1-24.79-20.93-48.12-39.08-67.7-3.48-3.76-6.07-9.01-13.36-9.55,6.73,24.44,4.86,49.08,4.28,73.53-.63,26.82,4.63,52.03,15.64,76.35,7.05,15.59,13.35,31.49,18.19,47.97,14.04,47.84,7.05,92.03-22.22,132.63-9.4,13.04-19.9,25.01-32.31,36.67Z"/>
  <path class="cls-8" d="M1547.71,1129.15c-3.58,3.87-8.26,8.31-12.23,13.32-9.76,12.32-22.71,15.17-37.28,12.95-21.15-3.22-38.7-12.66-49.33-31.88-13.49-24.39-19.95-49.31-5.64-76.24,5.7-10.73,13.75-14.34,24.73-13.47,37.83,3.01,71.97,54.86,48.65,87.13-2.54,3.51-7.6,8.25-2.16,12.47,5.15,3.99,8.66-1.73,11.87-4.84,5.42-5.23,9.85-11.28,12.22-18.61,.98-3.05,1.79-6.2,3.12-9.09,1.61-3.49,3.92-6.65,8.41-6.18,3.49,.36,5.72,2.68,6.9,5.91,1.1,3,1.99,6.07,3.09,9.08,3.59,9.86,10.03,17.57,18.3,23.84,1.79,1.36,4.16,2.03,5.93,.68,1.66-1.27,2.52-3.75,1.68-5.81-1.39-3.43-3.08-6.8-5.06-9.92-20.57-32.43,13.99-84.16,52.86-84.73,9.04-.13,16.07,3,20.9,11.85,15.51,28.4,9.57,55.18-6.42,80.39-14.05,22.15-35.56,31.04-61.79,29.54-7.05-.4-12.18-3.07-17.09-7.43-6.78-6.03-13.64-11.95-21.65-18.97Z"/>
  <path class="cls-5" d="M1534.2,1045.65c-.36-7.96-.23-15.46,2.88-22.53,4.01-9.12,3.42-18.8,3.9-28.43,.65-13.19-6.03-21.67-17.35-25.99-45.51-17.33-65.6-54.32-76.15-98.28-9.84-40.99-.19-79.56,17.5-116.57,8.08-16.91,15.74-33.95,22.75-51.34,4.44-11.02,7.89-22.18,9.72-33.77,2.08-13.16,3.18-26.47,4.69-39.72,.67-5.83-.85-9.42-6.96-12.48-9.1-4.56-11.97-15.9-7.63-23.04,3.83-6.3,15.64-10.19,22.81-5.56,5.95,3.84,10.48,3.36,16.27,1.12,3.83-1.49,8.16-4.46,12.25-1.76,7.63,5.04,14.43,4,22.29,.05,7.96-4,13.63,7.03,20.23,5.66,6.1-1.27,10.53-9.16,18.55-6.85,6.61,1.91,11.47,6.17,13.37,12.7,2.16,7.41-2.36,13.69-8.13,15.82-10.36,3.83-9.05,9.53-7.99,18.45,1.76,14.83,2.89,29.73,6.21,44.32,5.38,23.64,15.51,45.5,25.88,67.21,8.78,18.37,17.6,36.69,21.71,56.8,11.23,54.99-.66,103.81-39.44,145.15-9.66,10.3-21.81,17.02-35.09,21.9-15.13,5.56-22.11,18.36-19.15,34.22,1.08,5.77,1.58,11.82,3.76,17.17,9.21,22.62,3.2,44.13-3.86,65.67-1.15,3.5-1.63,7.57-6.53,8.02-5.61,.52-7.5-3.61-8.83-7.67-4.33-13.21-8.82-26.44-7.64-40.27Zm28.89-89.78c12.85-1.06,21.25-9.46,28.87-18.4,16.55-19.41,27.94-41.74,33.93-66.49,2.61-10.78,5.93-21.8,4.03-33.19-4.32-25.83-9.83-51.29-20.18-75.59-7.1-16.68-14.53-33.53-17.49-51.51-3.89-23.66-7.16-47.47-6.82-71.6,.13-9.11-2.88-17.66-4.89-26.34-18.96,3.11-20,3.31-16.97,20.85,2.77,16.03,1.81,31.98,2.43,47.97,.21,5.35-.13,10.79,.74,16.03,5.71,34.14,12.56,68.02,16.48,102.54,5.36,47.15,.35,92.58-14.67,137.23-2.02,6.02-6.46,11.24-5.85,18.12-.43,.54-.87,1.07-1.3,1.61,.56-.41,1.12-.82,1.68-1.23Zm-42.61-343.76c-3.6,4.23-5.22,9.01-5.37,13.61-.44,13.37-3.88,26.34-3.76,39.84,.25,28.6-5.91,56.03-16.6,82.67-7.75,19.3-15.29,38.71-20.4,59.04-13.79,54.79,3.99,99.77,41.82,138.81,5.15,5.31,10.92,9.88,18.55,9.08,2.57-3.76,.67-6.05-.42-8.34-11.67-24.46-17.11-50.81-19.1-77.3-3.05-40.55-.31-81,7.59-121.21,5.74-29.21,12.89-58.4,11.43-88.71-.69-14.28-1.2-28.69,1.79-43.53-5.61-1.44-10.62-2.72-15.53-3.98Zm28.13,1.05c-5.82,16.15-5.22,31.72-4.72,47.14,.89,27.45-3.1,54.23-8.48,81.06-4.71,23.49-8.6,47.29-10.56,71.15-3.31,40.38,1.82,80.03,15.29,118.43,2.08,5.92,4.14,11.84,9.05,17.35,5.15-5.34,7.68-11.31,9.63-17.22,9.74-29.56,16.13-60,16.31-91.05,.14-24.98-2.78-50.01-7.42-74.73-4.03-21.48-7.78-43.02-11.11-64.62-3.76-24.4-3.27-49.05-3.33-73.65-.01-4.56,1.15-9.74-4.67-13.85Z"/>
  <path class="cls-5" d="M1681.75,720.2c-.35,2.48-.28,5.27-1.19,7.71-2.23,5.98-8.79,7.04-12.54,1.75-2.42-3.4-3.82-7.62-5.2-11.64-6.07-17.71-12.08-35.44-17.89-53.24-4.02-12.33-10.11-23.54-17.2-34.32-2.43-3.7-4.16-7.96,.83-11.17,3.98-2.56,7.32-.41,9.88,2.54,24.53,28.25,39.08,60.92,43.31,98.37Z"/>
  <path class="cls-5" d="M1418.27,716.88c2.99-28.69,12.03-55.12,29.53-78.32,4.49-5.95,9.27-11.7,14.17-17.32,2.19-2.51,5.41-4.21,8.5-1.88,2.92,2.2,2.33,5.69,1.36,8.86-.31,1.01-.76,2.03-1.36,2.9-16.81,24.22-21.67,53.21-31.93,80.03-1.91,4.98-3.63,10.05-5.81,14.91-1.48,3.3-2.9,7.48-7.74,6.72-5.17-.81-6.56-4.86-6.71-9.49-.07-2.14-.01-4.28-.01-6.42Z"/>
  <path class="cls-5" d="M1556.28,1343.94c0,12.29-.01,24.58,0,36.87,0,4.66-.89,8.9-6.72,8.77-5.94-.13-9.65-4.35-8.1-9.46,3.02-9.96-2.1-19.91,1.64-29.96,2.13-5.71,1.04-12.65-.84-18.96-2.33-7.84-1.1-15.93-1.14-23.91-.03-5.3,1.96-9.78,7.95-10.11,6.91-.39,7.21,4.81,7.21,9.88,0,12.29,0,24.58,0,36.87Z"/>
  <path class="cls-5" d="M1539.93,1104.8c-3.08,11.58-9.42,21.83-19.81,29.29-2.88,2.07-6.1,1.73-8.71-.92-3.02-3.06-1.82-5.96,.98-8.15,7.85-6.15,12.85-14.08,15.61-23.57,.93-3.2,2.54-6.38,6.43-5.84,4.58,.63,5.5,4.39,5.49,9.18Z"/>
  <path class="cls-5" d="M1559.7,1105.52c.32-5.67-.23-10.06,5.07-10.41,3.66-.24,6.26,2.42,6.67,5.75,1.24,10.24,6.94,17.68,14.04,24.48,2.44,2.34,3.96,5.45,1.2,8.41-2.51,2.69-6.34,2.61-8.83,.58-9.73-7.97-16.57-17.86-18.16-28.8Z"/>
  <path class="cls-12" d="M1961.13,544.45c.92,21.45-7.9,25.11-24.06,27.21-17.32,2.25-35.36-15.97-35.85-33.76-.14-5.03,.81-9.44,4.56-13.14,6.09-6.01,12.22-11.96,19.7-16.25,9.67-5.55,20.51-3.11,26.39,6.36,6.33,10.19,8.56,21.7,9.25,29.58Z"/>
  <path class="cls-12" d="M1138.6,545.69c-.88-10.29,2.07-20.53,7.75-29.77,7.13-11.6,17.33-13.63,28.7-6.15,5.33,3.5,10.17,7.73,15.31,11.53,6.67,4.95,5.94,12.12,5.59,19.02-.86,16.7-17.85,32.3-34.32,31.79-15.23-.47-23.06-9.2-23.01-26.42Z"/>
  <path class="cls-12" d="M1226.95,1300.65c1.6,0,3.22-.17,4.79,.03,13.7,1.7,16.57,4.49,15.13,18.53-1.51,14.76-3.53,29.57-9.35,43.46-4.68,11.16-20.61,14.71-29.22,6.55-2.64-2.51-2.73-6.01-1.82-8.97,4.32-14.09,2.63-28.55,3.02-42.88,.43-16.02,1.7-17.38,17.45-16.71Z"/>
  <path class="cls-12" d="M1874.39,1300.68c12.49-.29,13.09,0,13.24,11.79,.2,16.53,2.94,32.78,5.04,49.08,.67,5.23-.1,7.6-5.2,9.51-15.48,5.82-22.62,2.95-27.56-12.66-4.17-13.19-7.87-26.48-7.21-40.65,.62-13.39,1.92-15.31,15.3-17.04,2.1-.27,4.26-.04,6.39-.04Z"/>
  <path class="cls-12" d="M1835.06,427.66c-4.58,8.92-2.96,18.72-5.21,28.06-2.11,8.75-22.72,15.37-37.16,12.42-6.03-1.23-11.88-3.45-17.28-5.89-11.18-5.05-11.8-7.45-6.37-16.84,6.54-11.3,16.33-21.09,25.11-31.35,4.91-5.74,11.01-9.77,20.75-8.77,9.82,1,14.14,6.19,16.52,12.78,1.11,3.06,2.32,6.1,3.64,9.57Z"/>
  <path class="cls-12" d="M1267.91,434.53c-1.42-7.97,1.31-14.68,5.98-21,6.54-8.85,16.52-11.15,26.13-4.65,18.81,12.72,29.96,29.67,38.78,47.55,2.09,4.23-.51,8.07-4.87,11.09-11.62,8.06-37.99,10.14-51.31,3.93-5.42-2.53-9.5-5.92-10.39-11.07-1.54-8.79-6.15-17.26-4.32-25.85Z"/>
  <path class="cls-12" d="M1933.81,788.62c16.95,.17,37.19,14.53,42.31,29.68,1.33,3.94-.92,5.95-3,8.35-6.35,7.31-15.25,9.68-24.03,12.02-5.18,1.38-8.03-2.17-9.66-6.42-2.69-7-7.58-9.2-14.95-9.38-11.34-.28-14.45-3.82-16.19-15.25-1.24-8.18,2.09-12.9,11.35-16.9,4.61-1.99,9.33-2.15,14.16-2.1Z"/>
  <path class="cls-12" d="M1189.46,804.97c.06,12.99-2.93,16.98-15.45,17.88-7.27,.52-12.24,2.77-14.89,9.59-2.73,7.04-7.53,7.62-14.16,5.39-24.81-8.33-27.63-21.12-8.33-39.06,11.25-10.46,32.76-13.25,46.51-6.52,6.03,2.95,6.46,7.83,6.31,12.71Z"/>
  <path class="cls-11" d="M1254.08,1068.02c-1.47,6.74-2.3,13.71-4.56,20.17-4.04,11.54-8.84,22.82-13.57,34.11-1.63,3.89-3.92,8.91-9.22,5.49-4.56-2.95-13.09-7.91-8.87-12.87,12.67-14.91,9.93-33.13,13.82-49.86,1.73-7.46,7.07-9.01,13.19-8.2,5.85,.78,9.73,4.3,9.21,11.16Z"/>
  <path class="cls-11" d="M1856.05,1056.98c7.14-.19,12.3,3.73,12.01,11.11-.62,16.03,2.78,30.83,11.03,44.53,4.18,6.94,0,11.07-4.98,14.75-2.95,2.18-6.41,2.25-8.17-1.39-8.8-18.25-19.08-35.98-19.77-57.12-.24-7.19,2.44-11.15,9.88-11.88Z"/>
  <path class="cls-1" d="M2022.94,1721.61c4.3,7.49,8.6,14.98,12.9,22.47l.33-.29c-4.31-7.48-8.63-14.95-12.94-22.43,0,0-.28,.25-.28,.25Z"/>
  <path class="cls-1" d="M1164.01,1210.89c2.91-2.89,5.82-5.78,10.46-10.39q-1.28,10.11-10.46,10.39Z"/>
  <path class="cls-1" d="M1930.82,1214.64c-2.83-2.75-5.66-5.49-10.01-9.72,9.88-2.87,11.13,2.31,13.13,6.44-1.04,1.09-2.08,2.19-3.12,3.28Z"/>
  <path class="cls-1" d="M1061.06,1747.3c2.18-5.14,4.36-10.28,6.54-15.42,1.16,.69,2.33,1.37,3.49,2.06-3.46,4.36-6.91,8.72-10.37,13.07l.33,.29Z"/>
  <path class="cls-1" d="M2035.83,1744.08c3.49,4.49,6.98,8.98,10.47,13.46-1.23,.65-2.46,1.31-3.69,1.96-2.15-5.24-4.3-10.47-6.45-15.71,0,0-.33,.28-.33,.28Z"/>
  <path class="cls-1" d="M1060.73,1747.02c-2.14,5.19-4.28,10.38-6.42,15.57-1.2-.71-2.41-1.41-3.61-2.12,3.45-4.39,6.91-8.78,10.36-13.17,0,0-.33-.29-.33-.29Z"/>
  <g>
    <path class="cls-1" d="M876.7,1488.84c.02,5.29-2.91,9.08-6.65,12.2-13.14,10.97-27.91,19.42-43.13,27.09-6.25,3.15-11.33,.8-15.41-4.32-4.52-5.66-2.64-10.94,1.22-15.95,.95-1.24,2.22-2.32,3.53-3.17,12.96-8.33,25.95-16.62,38.97-24.86,3.74-2.37,7.9-3.18,12.25-2.29,6.1,1.24,8.94,5.25,9.22,11.3Z"/>
    <path class="cls-1" d="M2289.5,1517.54c-.3,8.17-7.95,14.22-15.59,10.94-16.78-7.21-32.49-16.54-46.53-28.3-5.33-4.46-7.54-10.48-3.41-17.21,3.68-6,11.07-8.13,18.44-3.74,13.8,8.21,27.13,17.2,40.48,26.13,4.12,2.76,6.86,6.79,6.61,12.18Z"/>
    <path class="cls-1" d="M2046.56,1754.23c5.24,0,9.23,2.6,12.2,6.55,8.95,11.89,17.79,23.86,26.49,35.92,4.31,5.98,4.25,12.3-1.41,17.2-5.67,4.91-12.19,4.05-17.28-1.03-11.69-11.68-22.11-24.55-30.17-38.96-5.41-9.67,.32-19.6,10.17-19.68Z"/>
    <path class="cls-1" d="M1023.14,1816.77c-7.25,.2-13.41-6.54-12.03-13.76,.58-3.04,2.09-6.15,3.92-8.68,7.87-10.83,15.73-21.68,24.16-32.07,7.04-8.68,14.72-10.35,20.73-5.64,5.79,4.55,6.41,11.31,.94,20.24-7.57,12.36-17.04,23.34-26.44,34.32-2.85,3.33-6.85,5.07-11.28,5.58Z"/>
    <path class="cls-1" d="M1591.07,620.28c-.78-.3-3.15-.6-4.64-1.89-4.41-3.83-8.42-5.12-14.27-2.2-5.92,2.95-11.55,.58-15.26-5.01-2.59-3.89-2.65-8.18-.05-12.06,3.72-5.54,9.67-8.28,15.23-4.89,6.76,4.13,12.11,.67,18.21-.25,7.2-1.08,14.68,5.97,15.18,13.37,.48,7.1-5.89,13.44-14.4,12.94Z"/>
    <path class="cls-1" d="M1525.55,616.54c-5.06-2.13-9.17,.44-13.54,2.45-5.96,2.75-11.48,1.69-15.73-3.47-3.37-4.09-3.77-8.8-1.03-13.34,3.52-5.82,8.54-10.35,15.66-7.79,5.88,2.12,10.75,2.67,16.47-.39,4.7-2.51,9.53-.3,12.97,3.34,3.63,3.84,3.58,8.75,1.63,13.43-2.13,5.12-6.58,6.54-11.71,6.35-1.58-.06-3.15-.38-4.71-.59Z"/>
    <path class="cls-1" d="M2226.25,843.89c-.86,10.83-11.95,12.8-19,18.59-5.21,4.27-11.09,6.32-17.65,2.77-6.76-3.66-8.95-11.53-4.02-17.44,6.16-7.4,14.05-13.14,23.24-16.05,8.91-2.82,17.1,2.96,17.43,12.14Z"/>
    <path class="cls-1" d="M887.96,831.13c9.58,3.15,19.31,8.51,26.08,17.83,3.03,4.16,1.91,9.26-1.42,13.41-2.9,3.62-6.84,5.6-11.31,4.39-10.57-2.87-19.14-9.28-26.45-17.16-3.11-3.36-2.89-8.06-.49-12.04,2.69-4.47,6.99-6.4,13.58-6.44Z"/>
    <path class="cls-1" d="M1669.22,1090.99c-3.88-6.85-7.95-11.41-16.44-12.54-7.14-.95-9.45-7.9-8.83-14.94,.53-6,3.83-9.69,9.93-10.72,7.87-1.33,14.42,2.78,14.14,10.91-.31,8.94,.41,17.61,1.19,27.29Z"/>
    <path class="cls-1" d="M1547.56,1349.5c-8.73-1.08-14.02-7.24-12.8-14.93,1.12-7.13,8.79-13.27,15.96-12.78,7.81,.54,14.67,9,13.5,16.66-1.13,7.42-8.17,12.09-16.65,11.04Z"/>
    <path class="cls-1" d="M1148.97,499.56c6.78,.02,12.67,6.28,12.75,13.55,.07,7.29-5.84,13.44-12.78,13.29-7.1-.15-12.67-6.06-12.72-13.5-.05-7.42,5.63-13.36,12.75-13.34Z"/>
    <path class="cls-1" d="M1972.1,800.88c.12,7.17-5.9,12.59-13.73,12.38-7.59-.2-13.59-5.79-13.77-12.81-.17-6.48,6.7-12.78,13.86-12.72,6.89,.06,13.53,6.46,13.64,13.15Z"/>
    <path class="cls-1" d="M1622.35,732.58c.21,6.72-4.87,12.38-11.59,12.9-6.96,.54-13.19-5.3-13.63-12.79-.43-7.35,5.4-13.89,12.37-13.87,6.78,.02,12.62,6.26,12.86,13.76Z"/>
    <path class="cls-1" d="M1298.05,403.55c.33,7.38-5.02,13.62-12.07,14.07-7.21,.46-13.07-5.14-13.27-12.66-.19-7.44,5.15-13.75,12.04-14.25,6.89-.49,12.95,5.37,13.29,12.84Z"/>
    <path class="cls-1" d="M1522.53,816.47c-6.48-.09-11.99-5.78-12.13-12.53-.15-7.16,7.6-14.45,14.75-13.88,6.5,.52,11.57,6.58,11.15,13.34-.43,7.09-6.85,13.17-13.78,13.07Z"/>
    <path class="cls-1" d="M1588.12,804.08c.1,7.48-4.35,12.35-11.38,12.44-7.08,.1-14.24-6.89-14.54-14.19-.26-6.26,5.25-11.92,12.05-12.39,7.49-.52,13.76,5.87,13.87,14.14Z"/>
    <path class="cls-1" d="M1950.51,499.52c6.51,.05,12.02,5.68,12.12,12.38,.1,7.06-5.89,14.01-12.44,14.42-6.91,.44-12.97-5.9-12.81-13.4,.16-7.43,6.06-13.45,13.13-13.4Z"/>
    <path class="cls-1" d="M1153.78,800.46c-.21,6.88-6.31,12.66-13.53,12.83-7.37,.17-13.61-5.73-13.35-12.62,.26-6.99,8.02-13.52,15.35-12.92,6.65,.54,11.73,6.15,11.53,12.72Z"/>
    <path class="cls-1" d="M1562.56,1044.71c.04,7.01-5.82,12.77-13.16,12.93-7.54,.17-13.75-5.38-13.71-12.25,.03-6.51,6.42-12.75,13.41-13.11,7.2-.37,13.43,5.38,13.47,12.42Z"/>
    <path class="cls-1" d="M1826.02,404.4c-.21,7.4-6.2,13.35-13.28,13.22-7-.13-11.39-4.96-11.47-12.62-.08-7.8,5.22-14.04,12.11-14.27,6.9-.23,12.85,6.21,12.64,13.67Z"/>
    <path class="cls-1" d="M1501.41,731.34c.29,7.25-5.32,13.88-12.02,14.19-6.19,.29-12-5.09-12.65-11.73-.7-7.13,4.61-14.22,11.2-14.96,6.8-.76,13.17,5.15,13.46,12.5Z"/>
    <path class="cls-1" d="M1443.67,1078.19c-6.81,.13-13.26-6.06-13.43-12.86-.15-5.99,5.78-13.46,10.89-13.72,7.03-.35,14.41,7,14.22,14.15-.19,7.08-5.09,12.3-11.68,12.43Z"/>
    <path class="cls-1" d="M1644.9,1128.43c.43,6.51-4.85,12.21-11.73,12.66-6.79,.45-12.66-4.67-13-11.35-.34-6.54,5.09-12.45,11.7-12.72,6.72-.28,12.61,4.87,13.04,11.41Z"/>
    <path class="cls-1" d="M1240.25,1330.73c-.08,6.72-5.63,12.42-12.11,12.42-6.54,0-12.03-5.59-12.15-12.36-.11-6.66,5.43-12.32,12.08-12.35,6.55-.03,12.25,5.72,12.17,12.29Z"/>
    <path class="cls-1" d="M1633.55,870.24c6.44,.02,11.95,5.79,11.97,12.53,.03,6.55-5.73,12.33-12.18,12.24-6.61-.1-12.1-5.8-11.98-12.45,.12-6.65,5.74-12.34,12.19-12.32Z"/>
    <path class="cls-1" d="M1636.3,816.52c-6.64,.32-12.53-5.03-12.81-11.62-.27-6.53,5.28-12.42,11.88-12.59,6.68-.17,12.6,5.18,12.87,11.66,.27,6.48-5.2,12.23-11.94,12.55Z"/>
    <path class="cls-1" d="M1628.05,1090.74c.1,6.54-5.58,12.31-12.14,12.33-6.73,.02-12.46-5.42-12.59-11.93-.13-6.49,5.43-12.11,12.2-12.31,6.6-.2,12.43,5.34,12.53,11.92Z"/>
    <path class="cls-1" d="M1465.82,1117.01c7.43-.26,12.47,4.19,12.62,11.15,.14,6.61-5.17,12.52-11.54,12.84-6.33,.32-12.17-5.13-12.59-11.76-.46-7.06,4.17-11.97,11.52-12.23Z"/>
    <path class="cls-1" d="M1504.76,933.96c6.59,.34,12.17,6.15,11.95,12.45-.23,6.34-6.12,11.75-12.72,11.68-7.04-.07-11.53-5-11.33-12.45,.2-7.4,5.01-12.04,12.1-11.68Z"/>
    <path class="cls-1" d="M1494.93,1091.24c-.13,7.36-4.91,12.05-11.99,11.76-6.62-.28-12.14-5.96-11.99-12.35,.15-6.36,5.95-11.8,12.57-11.78,6.99,.02,11.54,4.95,11.41,12.37Z"/>
    <path class="cls-1" d="M1870.13,1318.17c6.14-.38,12.4,5.26,12.87,11.61,.47,6.33-4.83,12.55-11.2,13.17-6.37,.62-12.13-4.64-12.59-11.5-.44-6.57,4.75-12.89,10.91-13.28Z"/>
    <path class="cls-1" d="M1463.01,792.38c6.59,.32,12.22,6.13,12.02,12.4-.2,6.32-6.09,11.76-12.7,11.73-7.02-.04-11.56-4.99-11.39-12.41,.18-7.4,4.98-12.07,12.07-11.72Z"/>
    <path class="cls-1" d="M1233.29,1081.73c6.56-.23,12.52,5.02,12.94,11.4,.41,6.33-4.95,12.2-11.61,12.7-7.05,.53-12-4.03-12.36-11.39-.35-7.39,4.05-12.47,11.03-12.72Z"/>
    <path class="cls-1" d="M1876.91,1094.23c-.21,6.36-6.05,11.71-12.68,11.64-6.92-.08-11.42-5.09-11.24-12.51,.18-7.3,5.06-11.97,12.1-11.61,6.57,.34,12.03,6.11,11.82,12.48Z"/>
    <path class="cls-1" d="M1593.71,933.93c6.6-.16,12.51,5.14,12.84,11.53,.34,6.36-5.05,12.17-11.71,12.62-7.04,.48-11.99-4.16-12.27-11.49-.28-7.37,4.22-12.5,11.14-12.66Z"/>
    <path class="cls-1" d="M1466.04,870.24c6.57,.02,12.23,6.1,11.75,12.62-.48,6.5-6.55,11.73-13.18,11.34-6.45-.38-10.78-5.06-10.72-11.6,.06-6.71,5.64-12.38,12.15-12.36Z"/>
  </g>
  <path d="M1133.79,1229.62c-13.7-1.24-23.82,11.51-37.72,7.38,.98-13.38,14.11-9.76,21.21-17-20.34-5.08-38.08-17.94-59.93-10.08-1.99,.72-4.21,.78-6.28,1.34-4.47,1.2-9.44,1.74-10.27-3.95-.82-5.67,4.43-6.21,8.76-6.97,6.31-1.11,12.57-2.5,20.46-4.09-3.14-6.65-6.39-12.54-8.67-18.78-1.08-2.94-1.67-8.45-.15-9.53,4.87-3.47,7.42,1.13,9.55,4.87,2.12,3.72,4.48,7.4,5.94,11.39,3.22,8.78,9.21,13.95,18.2,16.26,8.57,2.2,17.01,4.91,28.23,8.19-4.31-8-7.01-13.02-9.81-18.21,4.46-6.17,8.03-4.28,11.65,.05,6.45,7.73,12.96,15.41,20.72,24.63,11.8-11.63,20.03-23.91,27.11-36.82,1.6-2.92-.57-8.21-1.63-12.24-9.42-35.72-19.88-71.19-28.23-107.15-7.26-31.28-12.19-63.09-18.09-94.4-22.83-4.14-45.65-6.99-67.79-12.54-89.97-22.55-164.23-69.06-217.99-145.92-3.37-4.81-6.55-9.84-9.06-15.12-.92-1.93-.36-6.55,.8-7.06,2.45-1.08,6.29-1.24,8.54,.03,3.12,1.77,5.27,5.22,7.89,7.9,60,61.32,130.21,105.9,213.03,129.7,18.93,5.44,38.1,9.66,59.56,8.18-.61-10.43-1.35-19.9-1.67-29.39-.93-27.3-2.9-54.64-2.2-81.9,.89-34.77,11.86-42.66,45.72-36.24,5.62,1.06,11.19,2.42,18.33,3.98-.54-4.97-.61-8.55-1.35-11.98-16.1-74.85-32.32-149.68-48.35-224.55-1.68-7.83-2.4-15.88-3.38-23.85-1.7-13.89,4.72-24.19,16-30.89,10.35-6.15,21.37-3.43,29.95,3.81,10.98,9.27,21.86,19.13,30.71,30.38,23.52,29.91,45.89,60.72,68.81,91.1,5.75,7.62,11.82,14.99,19.61,24.83,.84-5.95,1.94-9.27,1.67-12.46-5.71-67.28-12.18-134.44-27.58-200.41-1.92-8.21-2.51-17.06-1.8-25.45,.85-9.98,5.44-18.72,16.1-21.94,10.24-3.1,18.09,2.15,23.83,9.48,6.56,8.38,13.12,17.29,17.13,27.03,17.74,43.03,35.3,86.17,51.51,129.79,16.4,44.14,31.14,88.9,47.23,135.17,2.45-3.84,4.4-6.58,6.03-9.51,6.25-11.21,14.32-21.89,18.02-33.9,3.42-11.09,1.04-23.83,3.11-35.5,6.25-35.25,21.78-66.04,47.85-90.87,31.68-30.17,75.24-31.06,107.22-1.31,31.99,29.76,49.59,67.38,51.02,110.93,.39,11.96,3.54,20.77,9.11,30.26,5.39,9.19,9.59,19.07,15.23,30.52,2.44-5.45,4.77-9.74,6.33-14.28,17.64-51.12,34.21-102.64,53.04-153.31,13.4-36.07,29.45-71.18,45.1-106.37,3.61-8.11,9.48-15.76,15.93-21.93,13.23-12.66,29.68-8.08,34.83,9.57,2.03,6.96,2.34,14.89,1.43,22.12-1.41,11.11-5.37,21.89-6.82,32.99-7.94,60.53-15.45,121.12-23.03,181.7-.24,1.91,.32,3.92,.84,9.52,6.77-8.38,11.85-14.29,16.52-20.5,22.88-30.41,45.3-61.18,68.63-91.24,9.14-11.78,19.62-22.71,30.59-32.83,9.81-9.05,22.05-14.79,35.16-7.19,12.79,7.41,18.07,19.64,15.27,34.35-6.7,35.23-13.33,70.48-20.83,105.54-10.64,49.72-22.03,99.27-33.45,150.42,4.99-.4,8.53-.4,11.96-1.01,6.31-1.11,12.5-2.95,18.84-3.82,19.93-2.71,30.18,3.5,32.86,23.19,2.51,18.46,2.92,37.35,2.49,56.01-.53,22.91-2.89,45.77-4.51,69.44,16.3,2.78,31.51-.6,46.32-4.26,72.58-17.97,136.59-52.58,192.8-101.64,12.91-11.26,24.97-23.51,37.2-35.53,4.43-4.35,8.36-8.59,16.09-1.68-3.48,6.24-6.63,12.82-10.59,18.86-33.22,50.66-79.34,86.49-132.01,114.9-46.49,25.08-96.47,37.55-148.69,42.37-1.57,.14-3.11,.65-5.82,1.23-3.41,18.6-7.21,37.46-10.29,56.43-7.92,48.77-22.27,95.94-35.7,143.31-2.93,10.32-2.34,18.32,4.65,26.5,6.49,7.59,12.03,15.98,17.91,23.93,14.78-5.67,17.3-23.09,31.47-27.78,6.9,9.61-5.36,13.38-4.75,21.47,13.04-.68,25.18-5.24,36.12-11.28,5.26-2.91,7.51-11.2,11.23-16.99,3.2-4.98,4.28-12.35,13.28-12.35,3.96,11.9-7.71,18.64-8.15,29.7,7.49,1.51,15.3,2.65,22.79,4.84,2.27,.67,3.7,4.24,5.51,6.48-2.57,1.4-5.03,3.11-7.76,4.05-1.28,.44-3.12-.49-4.62-1.04-22.84-8.46-42.64,2.14-64.1,9.7,8.16,4.26,15.27,7.97,23.03,12.02-7.11,10.6-13.58,3.9-19.39,2.41-6.07-1.55-11.85-4.19-21.07-7.57,2.84,5.05,3.71,7.18,5.07,8.92,66.49,85.2,144.29,158.61,233.53,219.37,31.32,21.32,65.28,38.83,98.47,57.3,23.19,12.91,48.65,19.21,74.93,22.38,5.29,.64,10.69,1.6,15.59,3.56,2.07,.83,2.97,4.6,4.41,7.04-2.14,1.18-4.45,3.62-6.39,3.36-51.31-6.85-102.86-10.87-150.15-36.47-78.14-42.29-147.55-95.57-208.02-160.16-35.13-37.53-67.48-77.67-100.83-116.85-5.45-6.4-10.16-12.69-20.19-8.58,4.36,8.34,17.99,7.3,19.94,19.13-10.95,6.32-16.75-5.46-27.17-5.76-2.06,9.69-4.25,20.01-6.44,30.32-8.92,42-5.39,83.32,8.62,123.53,23.42,67.25,45.99,134.87,72.16,201.05,26.43,66.83,60.19,130.3,100.51,190.06,15.39,22.81,33.02,43.52,54.08,61.31,3.24,2.73,5.5,6.62,8.43,10.25-9.08,6.18-14.15,.75-19.36-2.35-33.25-19.79-61-45.52-81.63-78.34-36.27-57.69-69-117.16-93.64-180.99-25.26-65.43-51.94-130.31-78.14-195.37-11.07-27.5-21.55-55.35-18.44-85.53,2.02-19.6,6.99-38.91,10.87-58.3,2.08-10.42,4.65-20.74,7.25-32.21-10.06-1.17-18.95-2.2-27.83-3.23-.46,.63-.92,1.26-1.38,1.89,4.67,3.61,9.71,6.84,13.81,11.01,1.64,1.66,1.17,5.39,1.66,8.18-2.46,.18-5.54,1.4-7.28,.37-6.43-3.8-13.18-7.58-18.43-12.77-13.89-13.73-31.69-15.85-52.65-19.81,9.11,7.95,15.74,13.73,22.15,19.32-2.98,8.02-7.17,7.43-11.67,3.96-10.18-7.86-20.94-15.17-30.09-24.1-8.99-8.78-19.87-11.39-32.04-13.05,3.18,3.32,6.44,6.56,9.5,9.98,2.73,3.04,7.55,6.2,3.53,10.71-4.96,5.56-8.62-.09-11.85-3.03-11.09-10.11-21.61-20.87-32.95-30.69-5.83-5.04-12.92-8.62-21.27-14.05,.54,13.13,14.62,18.83,10.65,30.23-7.48,2.66-9.58-2.38-12.19-6.23-6.62-9.75-12.82-19.81-19.7-29.37-7.55-10.48-10.61-9.95-22.68-6.12-14.49,4.61-29.68,6.99-46.7,10.81-9.81,21.26-13.28,46.59-14.07,72.37-1.43,46.61-2.23,93.25-3.77,139.86-1.53,46.6-3.64,93.19-5.47,139.78-.14,3.66-.02,7.32-.02,13.05,6.78-2.35,12.1-4.57,17.62-5.91,2.11-.51,4.7,.97,7.07,1.55-1,2.66-1.26,6.82-3.13,7.74-11.61,5.75-23.79,10.44-37.06,7.52-9.23-2.03-18.65-4.25-26.04-11.12q4.41-5.13,24.7-1.87c0-13.21,.31-26.42-.05-39.61-1.94-70.19-3.77-140.39-6.24-210.56-1.15-32.58,.12-65.5-9.75-97.24-1.9-6.11-4.18-12.09-6.77-19.54-18.07,2.29-35.09-.28-51.18-9.15-6.55-3.61-12.16,1.28-16.02,6.92-5.75,8.4-11.29,16.94-16.99,25.38-2.39,3.55-4.58,7.37-7.58,10.32-1.51,1.48-4.65,1.28-7.06,1.84-.46-2.77-2.17-6.15-1.16-8.21,3.01-6.18,7.08-11.86,11.66-19.21-16.39,1.08-24.18,12.68-33.77,21.1-9.94,8.73-19.4,18.02-29.25,27.23q-5.58-8.17,9.71-25.97c-11.97,2.42-22.1,4.66-30.61,12.64-8.57,8.04-18.19,14.98-27.38,22.36-2.09,1.68-4.13,4-6.52,4.54-2.62,.59-5.63-.53-8.48-.91,.53-2.43,.26-5.69,1.75-7.12,4.93-4.76,10.5-8.86,16.55-13.79-19.1-.12-32.4,4.34-45.76,14.21-8.85,6.54-18.08,12.57-28.17,19.54-7.56-16.81,11.98-15.12,12.51-25-8.85,.96-17.76,1.93-28.16,3.06,1.44,7.47,2.59,14.11,4,20.7,4.48,20.94,10.73,41.69,13.06,62.86,1.72,15.63-.31,32.04-3.09,47.67-2.41,13.56-7.51,26.8-12.64,39.7-29.09,73.14-58.7,146.06-87.82,219.18-23.3,58.52-54.5,112.82-88.24,165.73-20.24,31.75-47.78,56.26-79.98,75.52-5.16,3.08-10.47,8.43-18.15,2.22,.95-2.1,1.35-5.09,3.05-6.46,47.14-37.99,76.16-89.52,104.73-141.13,38.76-70.02,69.28-143.68,94.03-219.78,12.08-37.16,25.72-73.84,37.21-111.18,14.14-45.96,10.27-92-2.22-137.46-10.05-2.15-16.39,12.33-27.57,4.56,2.79-10.75,14.49-10.67,19.99-17.87-9.04-5.34-13.67,.36-18.82,6.55-26.42,31.71-52.4,63.83-79.82,94.67-60.25,67.77-128.95,125.49-207.64,171.04-36.5,21.13-74.7,37.25-116.91,42.45-18.55,2.29-37.1,4.64-55.69,6.51-2.44,.24-5.16-2.26-10.08-4.61,4.79-3.09,7.38-5.78,10.44-6.54,8.81-2.17,17.76-4.03,26.76-5.14,22.12-2.72,42.43-10.75,62.33-20.2,61.9-29.42,116.76-69.33,170.24-111.78,60.95-48.38,112.31-105.72,161.48-165.39,1.26-1.53,2.14-3.39,3.7-5.93Zm-62.69,504.32c-1.16-.69-2.33-1.37-3.49-2.06-5.63,9.53-11.27,19.06-16.9,28.59,1.2,.71,2.41,1.41,3.61,2.12,5.6-9.55,11.19-19.1,16.79-28.65Zm971.52,25.56c1.23-.65,2.46-1.31,3.69-1.96-7.5-12.39-17.28-29.08-28.12-49.15-14.84-27.48-27.29-53.2-40.27-82.21-33.51-74.89-57.85-153.18-83.8-230.84-13.63-40.81-16.65-82.78-9.09-125.28,2.14-12.05,4.88-23.99,7.59-37.13-4.15-1.77-8.29-3.55-13.74-5.88-5.13,24.58-8.81,47.91-15.04,70.54-6.6,23.96-3.45,46.6,4.27,69.25,3.62,10.63,7.61,21.14,11.82,31.55,20.87,51.59,42.42,102.92,62.68,154.75,20.68,52.89,41.12,105.82,70.29,154.81,.36,.61,1.16,1.73,2.34,3.51,12.65,19.16,21.44,35.74,27.37,48.03Zm-450.61-784.71c27.66-13.73,44.25-36.8,56.87-62.54,33.69-68.74,40.55-140.49,19.22-214.11-10.37-35.79-29.77-66.24-61.8-87.37-2.49-20.53-7.42-22.75-27.34-11.3-9.45-8.91-19.89-10.52-30.49,.3-10.22-13.39-20-6.46-28.82-.45-1.99-.69-3.12-.85-3.97-1.41-14.11-9.36-18.51-7.61-22.81,8.68-.73,2.76-2.34,6.03-4.57,7.54-29.46,19.9-46.04,48.93-56.77,81.53-14.17,43.06-15.94,87.22-8.65,131.85,6.65,40.71,19.56,78.96,44.23,112.57,10.59,14.43,22.99,26.81,39.83,34.59,27.92-11.29,56.06-11.73,85.08,.12Zm-293.73,203.74c4.5,.3,8.05-.07,11.19,.88,7.66,2.31,15.03,5.6,22.71,7.84,15.05,4.39,29.58,.87,43-9.87-6.69-6.56-20.94,.11-24.92-15.49,5.96,.43,10.49,.46,14.92,1.14,8.98,1.4,17.88,3.27,26.85,4.73,12.38,2.02,22.59-2.34,32.3-10.54-9.18-4.25-21.77,.89-26.56-14.66,18.82,.49,36.24,6.63,55.11,2.02-12.69-15.74-20.68-32.08-23.67-50.16-4.22-25.54-2.06-50.66,22.21-65.59,12.7-7.82,21.05-17.16,27.25-31.52-67.39-28.8-123.71-76.94-187.76-109.2-14.92,14.4-28.71,27.7-43.26,41.74,2.6,26.5,5.17,54.19,8.06,81.85,5.51,52.64,1.26,102.87-35.04,145.41-1.04,1.22-2.24,2.46-2.79,3.9-.9,2.38-2.34,5.2-1.78,7.38,3.71,14.37,7.9,28.63,12.08,43.41,8.44-.89,15.6-1.64,23.44-2.46-4.04-7.17-15.29-5.44-15.87-16.81,3.62,0,7.1-.81,9.98,.15,8.61,2.86,16.92,6.62,25.47,9.66,17.16,6.1,32.42-1.14,49.43-5.68-7.82-7.02-20.03-4.61-22.37-18.12Zm572.45,33.24c3.26-11.62,5.31-22.21,9.24-32.05,4.35-10.89,2.18-19.35-5.22-27.78-21.04-23.95-30.79-52.78-32.14-83.91-1.04-23.95,.67-48.07,2.22-72.05,1.48-22.86,4.33-45.64,6.35-66.22-15.27-14.74-29.08-28.07-43.27-41.77-64.1,32.94-120.45,80.18-189.65,110.29,7.38,9.25,12.06,19.16,19.88,24.18,27.61,17.71,37.25,37.58,31.82,70.25-3.2,19.25-11.89,35.98-25.48,54.61,20.71-1.55,38.15-2.85,57.37-4.29-5.65,14.54-17.88,10.29-27.78,14.15,11.47,8.62,22.33,12.82,35.22,10.34,9.45-1.82,18.87-3.81,28.36-5.39,4.01-.66,8.79-2.04,10.99,6.22-8.62,3.15-17.44,6.38-26.74,9.78,20.14,13.22,39.81,14.01,60.1,4.05,3.34-1.64,6.89-3.27,10.5-3.81,2.56-.38,5.39,1.1,8.63,1.87-3.65,11.57-15.86,9.02-21.2,15.97,22.27,9.74,36.54,10.56,57.06,3.07,5.52-2.02,10.77-4.77,16.33-6.65,2.6-.88,5.64-.48,8.58-.66,2.4,12.25-11.49,9.78-13.81,17.62,7.37,.71,14.26,1.38,22.65,2.18Zm-322.51,159.25c.82,.1,1.64,.19,2.46,.29,.89-30.48,1.61-60.96,2.7-91.43,1.42-39.59,1.33-79.4,16.75-117.05,5.35-13.06,6.24-14.07,19.99-12.23,22.28,2.98,39.97-5.1,53.16-22.79,9.13-12.25,14.48-26.5,15.87-41.6,2.17-23.65-3.96-43.51-28.04-54.21-4.47-1.99-8.99-6.35-11.1-10.76-15.25-31.78-40.06-44.97-75.16-43.72-29.46,1.05-49.92,13.95-63.27,39.18-3.91,7.4-8.22,13.31-16.18,16.77-17.07,7.41-25.59,21.62-25.42,39.46,.12,12.55,2.25,25.74,6.62,37.48,11.53,31.05,31.8,42.79,64.88,39.53,8.11-.8,12.99,1.46,16.02,9.51,9.33,24.77,15.38,50.07,16.15,76.66,1.3,44.97,3.04,89.94,4.59,134.9Zm-336.49-572.9c-.32-3.19-.25-5.29-.77-7.22-17.06-62.56-30.83-125.84-41.93-189.73-2.42-13.92-3.26-29.13-18.1-37.52-1.45-.82-1.24-4.58-1.8-6.97,2.81-.17,6.54-1.58,8.26-.3,9,6.72,18.12,13.5,26.06,21.4,54.77,54.54,106.99,111.3,150.84,175.26,25.75,37.57,51.62,75.07,77.52,112.54,2.15,3.11,5,5.74,8.8,10.03-3.68-19.15-7.76-35.81-9.84-52.71-1.53-12.43-7.24-21.67-14.8-31.09-51.99-64.78-103.71-129.78-155.22-194.94-17.28-21.86-33.32-44.71-50.72-66.47-6.94-8.68-15.24-16.75-24.29-23.16-13.45-9.53-26.67-2.41-27.7,14.27-.39,6.32,.4,12.9,1.77,19.11,8.77,39.72,18.05,79.34,26.77,119.07,8.83,40.27,17.46,80.58,25.59,121,2.1,10.44,6.87,16.39,19.56,17.41Zm734.34-244.81c1.4,.84,2.8,1.67,4.21,2.51-1.04,2.99-1.2,7.5-3.28,8.72-11.72,6.87-13.76,18.4-15.86,30.07-11.77,65.36-25,130.41-42.71,194.47-.74,2.67-.09,5.73-.09,8.63,12.73-.28,16.64-7.81,18.59-17.46,6.05-29.91,11.81-59.9,18.39-89.69,10.29-46.52,21.25-92.89,31.71-139.38,1.99-8.86,3.53-17.9,4.29-26.94,.72-8.68-3.47-15.53-10.91-20.13-7.56-4.67-13.59,.25-18.97,4.18-6.43,4.7-12.42,10.27-17.67,16.27-8.1,9.27-15.57,19.11-23.04,28.91-27.29,35.8-53.91,72.14-81.83,107.44-35.9,45.39-72.76,90.03-109.36,134.87-6.28,7.69-10.04,15.83-11.24,25.92-1.63,13.78-5.02,27.35-7.61,41.02-.61,3.22-1.03,6.47-1.54,9.71,15.73-17.67,29.69-35.91,42.01-55.2,48.05-75.24,102.03-145.78,164.52-209.61,15.35-15.68,31.71-30.38,47.82-45.3,3.76-3.48,8.37-6.04,12.59-9.02Zm-24.99,39.56c-1.09-.66-2.18-1.31-3.27-1.97-3.05,2.81-6.35,5.4-9.11,8.48-28.6,31.86-56.62,64.25-85.88,95.49-12.13,12.94-15.68,27.04-14.62,43.84,1.78,28.29,2.79,56.64,4.31,84.95,.27,4.99,1.48,9.92,2.41,15.88,18.39-10.28,35.32-19.32,51.72-29.24,3.53-2.13,6.31-7.12,7.44-11.33,5.82-21.67,11.4-43.43,16.3-65.32,10.48-46.87,20.5-93.84,30.7-140.77Zm-741.86-3.08c.98,7.98,1.16,12.56,2.14,16.96,13.82,61.57,28.23,123.01,41.27,184.75,2.66,12.57,8.69,19.3,19.35,24.63,14.11,7.06,27.65,15.26,42,23.28,1.06-3.28,1.88-4.71,1.94-6.17,1.42-34.24,2.49-68.49,4.25-102.71,.64-12.53-2.68-22.58-11.26-31.99-28.86-31.67-57.11-63.89-85.7-95.81-3.43-3.83-7.55-7.03-13.99-12.94Zm315.77,391.83c-6.94-4.02-12.68-7.78-18.8-10.8-13.89-6.86-28.77-12.07-41.83-20.23-44.02-27.51-87.33-56.15-131.07-84.12-38.79-24.81-77.64-49.6-120.82-66.34-9.9-3.84-20.32-6.98-30.79-8.54-17-2.53-21.56,.75-23.62,17.61-1.74,14.27-2.33,28.85-1.66,43.21,2.41,51.93,8.54,103.4,17.98,154.62,11.57,62.79,28.73,123.98,47.48,184.86,3.5,11.35,10.33,16.21,22.93,18.18-1.56-6.42-2.72-11.49-4.01-16.52-15.17-59.07-30.16-118.19-45.61-177.19-14.12-53.9-17.95-108.65-15.14-164.09,.52-10.29,.07-20.64,.07-32.1,6.33-4.15,14.37-2.33,22.13-1.31,22.69,2.97,43.39,12.18,62.76,23.45,55.05,32.01,109.37,65.25,164.23,97.59,25.31,14.92,51.07,29.12,76.93,43.07,4.96,2.68,11.27,7.86,18.82-1.34Zm388.7,228.62c13.91-2.28,20.7-8.08,23.72-19.38,5.94-22.22,12.69-44.22,19.21-66.29,23.76-80.42,38.45-162.5,44.34-246.09,1.5-21.31,1.69-42.84,.61-64.17-1.13-22.29-8.3-26.7-30.38-22.1-1.57,.33-3.11,.84-4.6,1.41-16.43,6.35-33.81,11-49.08,19.46-35.09,19.45-69.48,40.22-103.52,61.48-29.07,18.15-56.65,38.72-86.01,56.35-24.69,14.82-51.04,26.86-76.55,40.35-5.84,3.09-11.22,7.04-17.11,10.79,7.17,8.64,13.45,3.56,18.42,.92,24.56-13.03,49.14-26.11,72.99-40.37,47.8-28.56,94.91-58.26,142.77-86.71,16.96-10.08,34.96-18.64,53.11-26.45,11.66-5.02,24.29-8.24,36.8-10.67,7.34-1.43,16-3.78,21.89,2.76-1.04,6.25-3.04,11.8-2.71,17.21,2.61,42.86,4.8,85.96-4.08,128.13-12.46,59.16-27.29,117.82-41.54,176.59-5.27,21.71-11.76,43.13-18.27,66.8Zm-242.23-584.57c.9-2.11,1.71-3.06,1.6-3.89-4.62-37.36-19.34-70.04-46.61-96.24-29.04-27.9-65.58-27.57-94.52,.42-24.24,23.45-38.19,52.54-44.75,85.32-.76,3.82-.1,7.92-.1,12.57,18.05-12.74,18.1-13.6,28.03-29.89,3.04-4.98,9.27-10.93,14.33-11.21,13.31-.74,26.67-.79,40.04-1.46,6.49-.32,13.09,1.91,20.08-.35,3.63-1.17,8.63-.33,12.28,1.28,5.25,2.3,9.57,1.99,15.01,.41,12.58-3.66,23.32,.65,27.49,12.68,5,14.42,17.81,20.07,27.13,30.36Zm143.75,39.29c1.71,.44,3.42,.88,5.13,1.32,.95-3.57,2.53-7.12,2.73-10.73,.41-7.47-.49-15.04,.15-22.48,5.77-67.8,13.5-135.33,28.71-201.79,.95-4.15,1.65-8.43,1.82-12.68,.34-8.56,1.62-19.07-8.23-22.21-9.29-2.96-14.29,6.3-17.86,13.15-10.12,19.44-21.08,38.72-28.54,59.21-28.01,76.92-54.66,154.33-82.09,231.47-3.8,10.69-2.14,20.13,3.24,32.85,7.62-21.58,15.03-39.93,20.6-58.82,20.37-69.15,49.8-134.43,83.18-198.08,1.97-3.76,3.18-8.34,9.83-6.2,4.06,7.83-1.52,14.16-4.8,20.21-5.79,10.68-8.03,21.57-8.07,33.73-.07,22.48-1.57,44.96-2.54,67.44-1.05,24.54-2.18,49.08-3.27,73.62Zm-376.35,68.07c7.26-16.6,4.66-28.55,.27-41.1-18.94-54.05-36.31-108.65-56-162.42-13.41-36.63-29.45-72.32-44.94-108.15-3.33-7.71-8.6-14.95-14.33-21.16-7.32-7.93-15.58-5.73-17.3,4.86-1.43,8.76-.88,18.18,.58,27,4.29,25.85,10.44,51.42,14.09,77.34,6.86,48.76,15.52,97.39,14.47,146.96-.06,3.01,2.28,6.06,3.5,9.09,1.1-.22,2.2-.45,3.3-.67,0-5.76,.16-11.52-.03-17.27-1.43-44.44-2.74-88.89-4.63-133.31-.26-6.11-3.23-12.21-5.51-18.09-2.7-6.97-6.33-13.6-8.83-20.63-.56-1.56,1.52-4.68,3.2-6.14,.73-.63,3.92,.69,5.29,1.91,1.51,1.35,2.26,3.57,3.25,5.46,33.57,64.16,62.87,130.09,83.57,199.67,5.43,18.25,12.68,35.95,20.07,56.63Zm369.47-194.14c-.7-.21-1.39-.43-2.09-.64-1.22,2.1-2.6,4.12-3.62,6.31-33.15,70.83-54,146.15-79.78,219.67-1.92,5.48-.86,12.02-1.37,21.39,4.98-4.59,7.52-6.41,9.42-8.75,23.2-28.67,46.56-57.22,69.19-86.33,3.52-4.53,4.82-11.68,5.09-17.71,1.42-31.49,2.29-63.02,3.1-94.53,.34-13.12,.06-26.27,.06-39.4Zm-467.57,318.51c48.39,32.49,93.82,65.63,144.83,90.01-.21-2.83-1-4.8-2.23-6.44-14.07-18.8-28.66-37.23-42.23-56.38-25.35-35.78-50.08-72-75.14-107.99-2.53-3.64-5.54-6.95-10.56-13.18,.41,34.32,.22,64.79-14.67,93.98Zm94.52-73.64c2.18-9.64,2.16-16.62-.35-23.94-14.89-43.44-29.04-87.13-44.49-130.36-9.52-26.62-20.85-52.6-31.51-78.81-1.48-3.64-3.79-6.94-7.36-13.37-.8,6.66-1.55,9.67-1.47,12.65,1.15,42.2,2.27,84.41,3.87,126.59,.19,4.97,2.05,10.72,5.07,14.59,21.05,26.97,42.56,53.57,64.06,80.19,3.18,3.94,7.1,7.3,12.18,12.46Zm235.63,161.93c1.07,.98,2.15,1.97,3.22,2.95,50.25-26.28,96.52-58.8,143.89-91.42-14.68-28.53-14.35-59.08-17.25-89.78-14.91,19.69-28.29,39.99-42.15,59.94-14.05,20.22-28.3,40.3-42.97,60.06-14.58,19.66-29.79,38.85-44.73,58.25Zm253.91,181.84c12.94-54.46,25.87-108.92,38.89-163.72-17.41-4.92-32.58-9.21-47.76-13.51-7.81,31.28-13.58,93.85-10.48,123.35,1.95,18.53,4.58,37.16,19.35,53.88Zm-689.72,1.39c27.8-29.78,19.24-140.18,6.52-178.34-14.68,4.21-29.36,8.42-45.51,13.06,10.81,55.15,24.5,109.13,38.99,165.28Zm-131.12,594.45c.68,.31,1.35,.62,2.03,.93,2.75-4.39,5.61-8.72,8.23-13.19,22.47-38.45,40.96-78.76,57.33-120.16,25.77-65.18,52.35-130.04,78.41-195.11,4.97-12.4,10.26-24.86,13.35-37.78,3.2-13.4,6.96-27.84,5.05-41.05-4.11-28.53-11.65-56.56-17.91-84.76-.31-1.41-1.74-2.57-3.34-4.82-3.95,2.32-7.78,4.55-11.47,6.72,12.93,44.17,16.91,87.75,6.46,131.38-6.97,29.05-16.66,57.5-26.05,85.92-30.09,91.05-62.7,181.09-109.7,265.16-1.15,2.06-1.6,4.51-2.37,6.78Zm133.99-805.66c-6.46-28.59-12.66-56.06-19.1-84.55-8.11-1.39-15.71-2.7-24.88-4.28-5.5,35.71-3.81,69.44-1.52,103.98,17.32,.2,29.95-7.85,45.5-15.16Zm726.9-88.34c-6.95,.89-12.95,.79-18.25,2.66-3.38,1.19-7.48,4.89-8.27,8.18-6.11,25.4-11.48,50.97-17.17,76.85,14.11,8.31,27.67,15.21,45.18,16.43,1.72-34.47,4.74-67.91-1.49-104.12Zm-721.73,314.32c12.96-12,21.13-26.7,25.65-43.64,5.42-20.35,9.11-41.05,6.95-61.95-5.97-58.02-13.33-115.9-19.27-173.93-1.55-15.12-9.8-20.76-23.98-23.64,.7,4.45,1.02,8.08,1.88,11.58,12.33,50.45,24.71,100.96,28.59,152.91,1.91,25.57,2.32,51.41,1.03,77-1.11,21.93-8.47,42.7-20.84,61.67Zm683.94-303.27c-17.77,2.73-23.74,12.18-25.31,26.62-6.05,55.85-12.98,111.61-18.86,167.48-2.61,24.8,1.94,49.11,9.37,72.78,4.07,12.96,10.6,24.61,21.39,33.68-18.04-29.66-21.39-62.35-20.47-95.69,1.23-44.52,7.32-88.49,17.11-131.94,5.37-23.85,10.95-47.66,16.76-72.93Zm-737.14,388.05c-.77-1.07-1.54-2.15-2.31-3.22-2.83,1.69-6.28,2.83-8.38,5.18-7.13,7.98-13.94,16.27-20.59,24.66-79.39,100.2-174.52,182.26-284.62,247.09-2.51,1.48-4.84,3.28-7.25,4.94,4.24,.72,7.67-.25,10.68-1.96,20.48-11.59,41.44-22.44,61.18-35.18,80.4-51.9,148.25-117.71,209.22-190.98,14.02-16.84,28.04-33.68,42.06-50.52Zm779.06-1.8c1.56,2.67,2.39,4.64,3.69,6.23,45.53,55.6,91.63,110.77,145.48,158.64,48.16,42.81,99.52,81.39,157.37,110.55,3.35,1.69,7.07,2.66,10.62,3.96-3.13-4.71-7.14-7.31-11.22-9.79-88.02-53.54-167.44-117.5-235.52-195.06-19.09-21.74-37.27-44.28-56.07-66.28-3.2-3.75-5.11-9.95-14.34-8.25Zm-818.17-274.7c3.11-10.23-3.4-9.98-8.47-10.76-15.8-2.44-31.9-3.58-47.4-7.25-52.05-12.3-99.45-35.31-143.78-64.92-5.07-3.39-10.3-6.52-15.45-9.78,61.13,54.86,133.03,84.55,215.11,92.7Zm1067.56-89.59c-4.81,3.1-9.63,6.19-14.43,9.29-48.49,31.34-100.11,55.34-157.22,66.08-11.01,2.07-22.3,2.61-33.44,3.98-6.61,.81-7.76,4.31-4.86,10.25,79.75-8.09,150.47-36.39,209.95-89.61Zm-388.97-12.61c8.62-9.18,.89-19.2,1.74-28.41,.88-9.5-.14-19.2-.71-28.79-.6-10.12-1.86-20.21-2.43-30.34-.54-9.65,.19-19.42-2.04-30.8-17.62,22.05-14.69,95.52,3.44,118.34Zm-496.91-116.74c-2.3,37.6-4.6,74.26-6.6,110.94-.1,1.77,2.39,3.68,5.51,8.17,14.37-32.91,14.95-64.46,11.55-96.43-.84-7.95,.61-17.43-10.45-22.68Zm532.85,137.73c6.74,7.41,12.62,13.86,20.59,22.62,2.49-13.83,4.42-24.54,6.8-37.73-10.08,5.56-17.88,9.86-27.4,15.11Zm-593.39,19.01c1.21,.42,2.43,.84,3.64,1.25,5.49-6.58,10.99-13.16,17.32-20.74-9.34-5.18-16.61-9.21-26.54-14.71,2.2,13.52,3.89,23.86,5.58,34.2Zm1.36,23.98c16.82-7.86,28.73-19.8,35.73-35.06-3.5,.35-7.88-.38-8.79,1.07-7.26,11.51-21.72,17.72-26.94,33.98Zm609.37,2.87c0-6.46,1.03-9.79-.17-11.16-8.07-9.23-16.48-18.19-25.22-26.78-.95-.94-4.76,1.03-10.47,2.46,12.59,12.45,22.99,22.75,35.85,35.48Zm35.88,13.41c2.84,12.63,27.21,21.46,46.65,17.23-16.24-6-30.7-11.34-46.65-17.23Zm-677.7-.87c-9.21,3.92-16.23,7.23-23.48,9.92-7.44,2.76-15.1,4.91-22.67,7.32,16.68,4.31,30.69-1.65,44.4-8.38,1.22-.6,.92-4.28,1.75-8.86Zm-46.85,281.7q9.18-.27,10.46-10.39c-4.64,4.61-7.55,7.5-10.46,10.39Zm766.81,3.75c1.04-1.09,2.08-2.19,3.12-3.28-2-4.12-3.25-9.31-13.13-6.44,4.35,4.22,7.18,6.97,10.01,9.72Z"/>
</svg>
